<svg width="24" height="24" viewBox="0 0 24 24" fill="none" xmlns="http://www.w3.org/2000/svg">
<path fill-rule="evenodd" clip-rule="evenodd" d="M7.5 3H16.504C18.987 3 21 5.013 21 7.496V16.505C21 18.987 18.987 21 16.504 21H7.496C5.013 21 3 18.987 3 16.504V7.5C3 5.015 5.015 3 7.5 3V3Z" stroke="white" stroke-linecap="round" stroke-linejoin="round"/>
<path d="M8.12 11.1V16.5" stroke="white" stroke-linecap="round" stroke-linejoin="round"/>
<path d="M11.719 16.5V13.35C11.719 12.107 12.726 11.1 13.969 11.1V11.1C15.212 11.1 16.219 12.107 16.219 13.35V16.5" stroke="white" stroke-linecap="round" stroke-linejoin="round"/>
<path d="M8.11799 7.83799C7.99399 7.83799 7.89299 7.93899 7.89399 8.06299C7.89399 8.18699 7.99499 8.28799 8.11899 8.28799C8.24299 8.28799 8.34399 8.18699 8.34399 8.06299C8.34399 7.93799 8.24299 7.83799 8.11799 7.83799" stroke="white" stroke-linecap="round" stroke-linejoin="round"/>
</svg>
