<svg width="140" height="154" viewBox="0 0 140 154" fill="none" xmlns="http://www.w3.org/2000/svg">
<g clip-path="url(#clip0_3_645)">
<path d="M66.5129 154C62.362 154 58.1812 153.511 54.0898 152.545C46.8479 150.836 40.1631 147.72 34.2192 143.287C28.5106 139.03 23.7376 133.746 20.0356 127.583C12.4719 114.994 10.1868 100.124 13.6022 85.7068C14.784 80.7176 16.6039 75.9687 19.0242 71.5357C18.3779 70.6772 17.9912 69.5892 17.9506 68.3554C17.8992 66.7895 18.2832 65.4531 18.6618 64.3543C19.2757 62.5806 20.2979 60.8635 21.3796 59.0439C21.4985 58.8468 21.6175 58.6443 21.7365 58.4418C21.5283 57.9073 21.3363 57.4051 21.1632 56.9273C18.8782 56.7869 15.8386 56.4035 12.8126 55.437C10.9413 54.8376 8.49668 53.9629 6.21161 52.4915C4.12666 51.1498 2.60148 49.6298 1.55225 47.8399C-0.0756911 45.0672 -0.429943 42.0624 0.530053 39.1493C1.11687 37.3648 2.07957 34.9917 4.32136 32.4377C6.48744 29.9242 7.97476 28.8038 10.4816 27.2433C14.0538 25.0241 18.1318 23.1289 22.9507 21.455C26.9259 20.0728 31.0823 18.9659 35.3009 18.1667C37.0424 17.8374 38.8677 17.5377 40.8824 17.2569C42.202 17.0706 43.5109 16.9491 44.7737 16.8304L45.3551 16.7764C47.7159 16.5523 52.524 16.2175 55.3418 16.2175C55.45 16.2175 55.5582 16.2175 55.6609 16.2175C58.2326 16.2418 63.8844 16.4011 66.9267 16.8277C71.1831 17.3676 73.5845 18.1667 76.0777 19.2844C77.8517 20.0809 79.9394 21.0933 81.9729 22.5782C83.6577 23.8092 84.9097 25.1699 85.7994 26.7385C87.0028 28.8578 87.4138 31.1742 87.0217 33.5392L88.3955 35.7827C89.3527 37.3243 89.8801 38.774 90.0991 40.105L94.3772 39.5111C95.7212 42.7832 95.9916 45.95 95.1803 48.9225C95.0695 49.3301 94.9424 49.7162 94.8017 50.0834C96.4784 51.0715 98.1009 52.1514 99.6585 53.3123C100.345 53.8252 101.021 54.3544 101.687 54.9024C102.441 52.7831 103.066 50.5315 103.55 48.1719C104.261 44.7054 105.351 39.9565 106.79 34.0576L109.634 21.6899C109.634 21.6899 114.088 6.26617 132.19 0.553466L133.951 -0.00268555L140 4.12796L132.785 31.2957L127.45 51.39L127.423 51.4791C127.323 51.7923 124.929 59.2113 120.638 65.2128C119.042 67.4428 117.395 69.384 115.265 71.5168C121.687 83.5497 123.475 97.4211 120.281 110.896C116.865 125.312 108.15 137.588 95.7374 145.458C89.661 149.311 83.0249 151.9 76.0101 153.155C72.8705 153.717 69.6769 154 66.5156 154" fill="white"/>
<path d="M132.115 19.0442L135.646 5.74512L133.334 4.16846C116.319 9.53829 113.939 21.2067 113.939 21.2067C113.939 21.2067 113.626 22.4162 113.123 24.3789L112.89 24.4707L110.486 34.9296C109.307 39.7568 108.085 44.9592 107.271 48.9333C106.222 54.052 104.675 58.1341 103.087 61.2955C101.319 59.5109 99.4206 57.8587 97.3924 56.3468C94.9072 54.4921 92.2787 52.8884 89.5285 51.5385C90.6995 50.2804 93.2279 46.6898 90.8698 40.9501C90.8698 40.9501 90.2154 46.7303 85.0801 44.9592C85.0801 44.9592 88.0683 42.443 85.1747 37.7805C85.1747 37.7805 81.3239 45.3885 76.6159 39.7622C77.1676 39.5975 78.0924 39.4895 79.7717 38.469C81.2104 37.5942 82.2704 36.0419 82.868 34.4571C83.6225 32.4566 83.5766 30.4993 82.503 28.6121C81.8161 27.4053 80.848 26.455 79.7366 25.6424C78.0897 24.441 76.3779 23.5771 74.5283 22.7482C72.3027 21.7493 70.2312 21.069 66.4291 20.5911C63.7357 20.2105 58.3462 20.0404 55.6285 20.0134C53.0919 19.9891 48.246 20.3131 45.7229 20.5533C44.287 20.691 42.8456 20.8152 41.4178 21.015C39.6114 21.2688 37.8077 21.5576 36.0175 21.8951C32.0044 22.6564 28.0644 23.6986 24.2082 25.0376C20.1248 26.4577 16.1767 28.1775 12.4962 30.4642C10.1409 31.9274 9.0132 32.8157 7.19326 34.9269C5.38685 36.9787 4.63508 38.8388 4.14291 40.3345C3.50742 42.2702 3.79136 44.152 4.83248 45.9284C5.67349 47.362 6.8931 48.423 8.27495 49.3112C10.0435 50.4505 11.9851 51.1957 13.9781 51.8355C18.3968 53.2475 22.8453 53.2313 24.0135 53.2151C24.2163 53.2124 24.3218 53.2097 24.3055 53.2151C23.5997 53.4527 26.0308 58.6119 25.8929 58.8549C24.4759 61.3792 22.948 63.6092 22.2585 65.5962C21.9637 66.4493 21.723 67.316 21.7528 68.2312C21.7852 69.2274 22.3504 69.7862 23.3455 69.7997C23.7782 69.8051 24.1947 69.7349 24.6057 69.6297C21.239 74.7295 18.7565 80.4476 17.3016 86.5815C14.1161 100.032 16.2443 113.903 23.2969 125.639C26.7447 131.376 31.1851 136.295 36.4989 140.256C42.0209 144.375 48.2352 147.27 54.9687 148.86C58.7897 149.761 62.6513 150.212 66.5184 150.212C69.4632 150.212 72.4108 149.95 75.3449 149.427C81.8729 148.26 88.0493 145.849 93.7065 142.261C105.278 134.923 113.404 123.474 116.59 110.024C119.775 96.5733 117.647 82.7019 110.594 70.966C110.567 70.9201 110.538 70.8769 110.511 70.831C113.239 68.296 115.419 65.9877 117.552 63.0098C121.546 57.4267 123.81 50.329 123.81 50.329L129.132 30.286L132.339 19.1684L132.117 19.0415L132.115 19.0442Z" fill="white"/>
<path d="M73.9847 68.2851C58.1921 64.5567 42.1993 74.7943 38.335 91.1089C34.4707 107.424 44.1734 123.73 59.966 127.459C75.7587 131.187 91.7487 120.949 95.6157 104.635C99.48 88.3201 89.7773 72.0135 73.9847 68.2851ZM55.3445 146.964C48.8138 145.423 42.7861 142.615 37.4291 138.619C32.2749 134.775 27.9643 130.002 24.6165 124.432C17.7667 113.034 15.7007 99.5619 18.797 86.495C21.8934 73.4282 29.787 62.3078 41.023 55.1805C46.5126 51.6978 52.5105 49.3598 58.8438 48.2259C65.4258 47.0488 72.0755 47.2351 78.6062 48.7766C85.1369 50.3182 91.1646 53.1259 96.5216 57.1216C101.676 60.9661 105.986 65.7392 109.334 71.3089C116.184 82.7073 118.25 96.1791 115.156 109.246C112.06 122.313 104.166 133.433 92.9304 140.561C87.4409 144.043 81.4456 146.381 75.1096 147.515C68.5276 148.692 61.8779 148.506 55.3472 146.964" fill="#FCDE00"/>
<path d="M98.5444 98.3012C98.5444 115.372 84.5961 129.208 67.3918 129.208C50.1876 129.208 36.2393 115.372 36.2393 98.3012C36.2393 81.2306 50.1876 67.3943 67.3918 67.3943C84.5961 67.3943 98.5444 81.2306 98.5444 98.3012Z" fill="black"/>
<path d="M104.139 68.5713L102.785 73.2959L99.7964 74.7079L97.7737 77.0189L95.3399 79.9643L94.0013 81.6975L94.2311 82.6047C95.2723 84.3514 96.143 86.2062 96.8245 88.1527L97.2436 88.4578C101.971 84.7132 112.038 76.5761 112.038 76.5761C109.578 73.1015 104.139 68.5713 104.139 68.5713Z" fill="#BFA80F"/>
<path d="M94.2339 82.6047L95.3724 87.0944L96.8272 88.1527C96.1458 86.2089 95.275 84.3515 94.2339 82.6047Z" fill="#381C0D"/>
<path d="M40.8851 82.0566C40.155 83.2283 39.5005 84.454 38.9272 85.7229C39.3167 86.0982 39.7385 86.5248 40.2009 87.0188C41.1339 88.0123 41.764 88.4011 42.1777 88.4011C43.6272 88.4011 42.4427 83.663 42.4427 83.663L40.8851 82.0566Z" fill="#381C0D"/>
<path d="M88.3927 52.8938L87.9736 57.7885L85.3126 59.7458L83.7712 62.4024L81.9513 65.7582L80.9697 67.7155L82.7004 71.3764C83.8091 71.9974 84.8746 72.6858 85.894 73.4309C91.0185 69.8213 92.8304 62.6805 92.8304 62.6805C94.9315 64.4974 93.858 69.114 93.858 69.114C98.155 65.1993 97.6871 59.2302 97.6871 59.2302C94.6043 56.2928 88.3954 52.8911 88.3954 52.8911" fill="#BFA80F"/>
<path d="M82.7004 71.3792L83.3494 72.7533L85.4506 73.7333C85.5993 73.6361 85.748 73.539 85.8941 73.4364C84.8746 72.6885 83.8091 72.0028 82.7004 71.3792Z" fill="#381C0D"/>
<path d="M67.3594 69.446C62.1619 69.446 57.0293 70.9525 52.4645 73.8736C46.0555 77.9773 41.5449 84.373 39.7655 91.8811C36.0932 107.389 45.293 122.882 60.277 126.422C75.2611 129.961 90.4399 120.223 94.1149 104.716C95.8943 97.2077 94.7314 89.4729 90.8428 82.9368C86.9622 76.4168 80.8399 71.8866 73.6034 70.1777C71.5347 69.689 69.4416 69.4487 67.3621 69.4487M66.494 130.158C64.2117 130.158 61.8969 129.896 59.5874 129.351C42.9863 125.431 32.7806 108.315 36.8369 91.1926C38.7974 82.9206 43.7705 75.8715 50.842 71.344C57.9298 66.8057 66.2615 65.3532 74.2984 67.2511C82.338 69.1491 89.1337 74.1733 93.4334 81.4006C97.725 88.6117 99.0068 97.1375 97.049 105.41C93.5578 120.148 80.6181 130.158 66.494 130.158ZM55.6582 145.933C61.9861 147.426 68.4302 147.607 74.8095 146.468C80.9508 145.369 86.7621 143.101 92.0867 139.724C102.99 132.807 110.651 122.013 113.656 109.332C116.66 96.6489 114.653 83.5739 108.009 72.5157C104.764 67.1161 100.583 62.486 95.5887 58.7604C90.3966 54.8889 84.5555 52.1675 78.2276 50.6719C71.8997 49.1762 65.4556 48.998 59.0764 50.1373C52.9351 51.2361 47.1237 53.5039 41.7991 56.8813C30.8957 63.7954 23.2347 74.5891 20.2303 87.2726C17.2259 99.9561 19.2324 113.031 25.8767 124.089C29.1217 129.489 33.3025 134.119 38.2971 137.845C43.4892 141.716 49.3304 144.437 55.6582 145.933ZM66.5157 150.212C62.6486 150.212 58.7897 149.761 54.9659 148.86C48.2324 147.269 42.0182 144.375 36.4961 140.255C31.1824 136.292 26.742 131.376 23.2942 125.639C16.2416 113.903 14.1133 100.032 17.2989 86.5814C20.4845 73.1312 28.6134 61.6815 40.182 54.3435C45.8392 50.7556 52.0156 48.3447 58.5436 47.1784C65.3312 45.9662 72.1864 46.1552 78.9199 47.7453C85.6534 49.3355 91.8677 52.2296 97.3924 56.3495C102.706 60.3127 107.147 65.2317 110.594 70.9687C117.647 82.7046 119.775 96.576 116.59 110.026C113.404 123.476 105.275 134.926 93.7065 142.264C88.0493 145.852 81.8729 148.263 75.3449 149.429C72.4108 149.953 69.4632 150.215 66.5184 150.215" fill="black"/>
<path d="M74.3308 46.4522L65.6476 41.6952L55.2796 49.5272L43.5135 58.1989L35.6686 63.0935L34.4084 70.3667L35.9499 76.101L45.0549 85.75L49.9577 94.562L51.637 103.231L51.9182 110.785L53.4597 115.258L62.1456 115.399L71.1101 113.582L76.0128 110.223L82.8761 100.156L86.2402 90.3638L86.0995 80.0157L82.5976 68.9682L80.7749 66.3089L83.4359 64.7728L86.3781 59.0385L87.3597 49.1087L82.3163 44.7729L74.3308 46.4522Z" fill="#FAB057"/>
<path d="M33.681 69.6432C33.681 69.6432 40.3415 69.1464 43.7678 65.4775C43.7678 65.4775 43.6434 57.5834 51.3017 61.5007C51.3017 61.5007 60.515 55.7205 66.3074 58.0828C66.3074 58.0828 69.4984 59.3112 71.102 62.0002C74.2145 67.2215 73.0328 84.3137 73.0328 84.3137L76.8917 86.1793L79.6933 87.1728L82.2461 85.3693L82.868 84.7484C82.868 84.7484 81.497 70.6394 75.5207 62.2485L74.4011 54.9754L70.9776 51.247L67.865 44.098L57.7161 47.8885L51.0529 52.6752L43.2702 57.5861L38.3512 60.7556L34.3436 63.2988L33.681 69.6432Z" fill="#B26929"/>
<path d="M79.5662 54.6648C79.6284 54.4785 79.1308 47.3916 82.8031 50.437C82.8031 50.437 84.1741 53.8738 82.3055 56.1551C81.186 57.5238 79.5662 54.6621 79.5662 54.6621" fill="#B26929"/>
<path d="M46.2367 69.3624C45.3389 69.3624 44.2437 69.0951 44.2437 69.0951L44.0977 68.7172C42.6293 64.924 43.4595 57.694 43.4703 57.389C43.4838 56.9678 43.2648 56.6951 43.7299 56.7086C44.1923 56.7221 44.5547 57.0758 44.5412 57.4969C44.5412 57.5644 44.3303 64.1573 45.5282 67.7912C46.4963 67.9045 48.9301 67.9261 50.8041 65.6799C51.2341 65.0968 52.3077 63.7874 53.3677 63.7307C53.7815 63.7091 54.1574 63.8576 54.4278 64.1492C54.7253 64.4731 54.682 64.9537 54.3304 65.2264C54.0573 65.437 53.6787 65.4613 53.3813 65.3101C53.0838 65.4963 52.6674 64.897 52.2942 65.41L51.5478 66.5196C49.6143 68.8495 47.7944 69.3543 46.2367 69.3543" fill="black"/>
<path d="M45.9744 69.168L49.2114 68.1124L50.9556 66.7436L52.1373 65.0643L54.2547 64.8781C54.2547 64.8781 52.8864 69.4785 50.7068 70.9066C48.5272 72.3348 45.9744 69.1653 45.9744 69.1653" fill="black"/>
<path d="M41.9316 68.7361C41.9316 68.7361 38.3837 71.9056 41.4638 79.0384C41.4638 79.0384 34.1327 72.6993 41.9316 68.7361Z" fill="black"/>
<path d="M70.7207 80.4233C70.4124 76.9784 69.7418 70.9606 69.2442 67.7074C68.076 60.0616 60.6448 62.0838 60.3879 62.1135L62.6919 62.3321L56.5939 63.2798L55.4419 62.0514C55.4419 62.0514 57.873 60.3127 61.3344 60.1264C64.4037 59.9617 70.1339 59.3489 70.9127 68.3283C71.2156 71.8164 71.5969 79.7942 71.9079 83.2769L70.7234 80.4233H70.7207Z" fill="black"/>
<path d="M82.8329 50.4586C82.8329 50.4586 81.6187 48.2205 80.0313 49.5731C78.4439 50.9256 78.7712 54.5622 78.9577 56.6113C78.9577 56.6113 82.4597 55.3047 80.2179 61.0876C80.2179 61.0876 86.754 55.2129 80.7317 53.5363C80.7317 53.5363 79.3769 49.4813 82.8329 50.4586Z" fill="black"/>
<path d="M76.7322 83.5118C76.7322 83.5118 76.3887 75.1668 74.4904 65.858C74.4904 65.858 79.412 77.4751 78.5386 83.6603L78.8171 88.7331L76.0155 87.988L76.7322 83.5118Z" fill="black"/>
<path d="M63.1273 41.6952C63.1273 41.6952 72.8408 53.2556 67.4243 58.1988C67.4243 58.1988 70.5071 58.3851 71.9998 56.3333C71.9998 56.3333 74.6148 60.248 72.281 64.6324C72.281 64.6324 74.988 65.0994 76.2968 60.6232V53.6308L78.352 47.9424L80.2206 46.544L83.1168 46.8247L84.7988 49.2491L85.6399 52.8857V56.6141L84.7069 60.7177C84.7069 60.7177 88.9093 62.4888 88.628 67.1513C88.628 67.1513 92.7384 59.9726 89.0012 52.0461C89.0012 52.0461 93.858 48.2232 90.8698 40.95C90.8698 40.95 90.2154 46.7302 85.0801 44.9592C85.0801 44.9592 88.0683 42.443 85.1747 37.7805C85.1747 37.7805 80.7858 46.4522 75.6478 38.4339L73.314 38.2476L72.6596 39.4598H71.4454L70.0446 38.3421L65.7476 39.2735L63.1327 41.6979L63.1273 41.6952Z" fill="black"/>
<path d="M49.2438 89.122C49.2438 89.122 53.5408 83.528 64.1873 84.5216L66.4291 88.0016C66.4291 88.0016 55.9692 86.3844 49.2465 89.1193" fill="black"/>
<path d="M34.3436 63.2988C34.3436 63.2988 40.5092 68.6686 43.1674 60.1616C45.8284 51.652 39.6006 60.221 39.6006 60.221L36.6232 61.5466L34.3409 63.2988H34.3436Z" fill="white"/>
<path d="M41.0067 60.0698C41.3664 61.3306 40.7282 62.6157 39.5816 62.9424C38.435 63.269 37.2127 62.5131 36.8504 61.2523C36.4907 59.9915 37.1289 58.7064 38.2755 58.3798C39.4221 58.0531 40.6444 58.809 41.0067 60.0698Z" fill="black"/>
<path d="M39.0327 60.6692C39.2166 61.3171 39.03 61.9381 38.6108 62.0568C38.1944 62.1756 37.7049 61.7491 37.521 61.1011C37.3371 60.4532 37.5237 59.8322 37.9402 59.7134C38.3566 59.5947 38.8461 60.0212 39.03 60.6692" fill="white"/>
<path d="M35.4847 62.829C35.4847 62.829 37.0424 65.4396 42.0208 63.3257C42.0208 63.3257 39.2193 67.2431 34.9845 64.2571L34.4869 62.2053L35.482 62.8263L35.4847 62.829Z" fill="black"/>
<path d="M47.6294 55.6557C47.6294 55.6557 51.6397 59.2491 54.6631 56.6546C57.6864 54.0602 59.0628 53.3177 60.4528 47.767C61.8428 42.2163 56.2126 47.6914 56.2126 47.6914L51.4369 50.8285L48.9599 52.9398L48.5353 53.7848L47.6294 55.6557Z" fill="white"/>
<path d="M49.306 55.9284C49.306 55.9284 51.2368 59.2221 58.1461 53.8145C58.1461 53.8145 53.9735 61.7707 47.4374 56.7356L49.306 55.9284Z" fill="black"/>
<path d="M55.2634 52.4969C55.6231 53.7577 54.9849 55.0428 53.8383 55.3695C52.6917 55.6962 51.4694 54.9402 51.107 53.6794C50.7474 52.4186 51.3855 51.1335 52.5321 50.8069C53.6787 50.4802 54.901 51.2361 55.2634 52.4969Z" fill="black"/>
<path d="M53.2893 53.0936C53.4732 53.7416 53.2866 54.3625 52.8675 54.4813C52.451 54.6001 51.9616 54.1735 51.7777 53.5256C51.5938 52.8776 51.7804 52.2567 52.1968 52.1379C52.6133 52.0191 53.1027 52.4457 53.2866 53.0936" fill="white"/>
<path d="M33.3809 54.4516L35.7903 64.4353L35.6632 64.7377C35.6578 64.7539 34.8979 66.614 34.7898 69.0681C34.6492 72.2565 35.6254 74.9185 37.686 76.9757C43.3838 82.6641 49.5981 89.5647 51.2287 99.5268C51.7993 103.018 51.9183 105.928 52.0156 108.269C52.1968 112.661 52.3483 114.205 54.1303 114.659C58.065 115.663 68.2112 114.756 72.3513 111.827C76.5266 108.873 83.9849 96.5814 84.2553 89.2057C84.5501 81.1684 82.8843 72.3078 80.2963 68.1394L79.9096 67.5157L80.153 65.1858C79.2822 64.9996 84.8854 66.0552 85.1639 53.6254C85.2369 50.4235 83.6523 47.8317 82.2677 47.1919C81.3915 46.7842 80.0421 47.0866 79.6527 47.3782C77.7841 48.7767 77.2838 52.5077 77.2 54.4138C77.173 55.0482 77.1973 55.7583 77.2216 56.5115C77.2838 58.2798 77.346 60.1103 76.7295 61.417L75.6748 63.6578L74.8717 61.3144C74.8095 61.1335 68.8386 43.8091 63.7465 39.4193L33.3728 54.4462L33.3809 54.4516ZM58.2056 117.046C56.3857 117.046 54.7848 116.897 53.6328 116.603C50.3147 115.755 50.1876 112.65 50.0118 108.352C49.9172 106.066 49.8009 103.22 49.2492 99.8508C47.7159 90.4772 40.5876 83.9924 35.1116 78.5254C29.7735 73.196 33.1051 65.8959 33.6892 64.2868L31.0526 53.369L63.9683 37.084L64.4577 37.4323C68.533 40.3291 72.9355 50.545 75.2178 56.4305C75.1935 55.7232 75.1718 54.9969 75.2016 54.3355C75.3043 51.9867 77.0945 47.6293 78.7874 46.3928C79.7474 45.6881 81.4213 45.3048 82.9897 46.031C85.6507 47.2648 86.443 50.8582 86.6404 53.6578C87.1272 60.6313 83.4386 65.9121 82.1622 67.6237C86.178 73.6847 87.0623 82.4508 86.8162 89.1679C86.6837 92.7774 84.4176 97.9367 81.5565 103.115C78.9415 107.845 75.8614 111.813 73.5169 113.471C70.1068 115.882 63.303 117.051 58.2083 117.051" fill="black"/>
<path d="M33.6459 62.8127C32.6426 63.6064 35.0142 62.1297 43.2972 60.3262C43.2972 60.3262 43.7677 56.1767 48.3108 57.1081L55.8096 50.5045C55.8096 50.5045 58.86 47.5833 58.9249 52.2296C58.9249 52.2296 62.2213 48.2691 61.4128 47.5212C61.4128 47.5212 61.5993 46.9003 61.1018 50.4424C61.1018 50.4424 66.8455 46.3846 67.9867 44.5299C68.4518 43.774 68.6384 43.3177 69.4199 43.7389C70.2366 44.1762 71.3075 44.8296 72.7137 45.7934L73.5222 43.0585L69.9743 39.0494L65.4285 37.2783L56.7128 41.8787L41.8315 49.4003L34.3598 52.8182L30.4387 54.4353L32.8048 59.4704L33.6432 62.8127H33.6459Z" fill="black"/>
<path d="M7.00122 36.7087C7.09317 36.4279 20.0761 27.2919 20.0761 27.2919L37.6319 22.3514L52.6673 20.5803L65.369 21.2337L73.3059 23.7498L77.3217 26.266L79.3769 28.5041L79.6581 31.8599L77.3244 37.3621L75.9236 39.1331L73.4546 39.1709L72.5622 39.8782L71.2345 39.9943L69.7634 39.125L67.7055 39.1304L60.2337 42.6725L51.829 49.2923L45.5715 54.9807L38.1944 60.6691L29.7897 66.1713L25.0275 67.756L22.7857 67.0109L23.3455 65.2398L27.0719 59.3732L28.2077 57.5995L26.1498 57.7831L24.7625 52.1298L23.8133 52.748L18.0236 52.3755L9.8055 49.1114L5.97633 45.1968L5.13531 41.0013L7.00393 36.7114L7.00122 36.7087Z" fill="#665E26"/>
<path d="M41.9965 74.4704L47.9728 73.0422L54.3223 69.9968C54.3223 69.9968 59.8011 66.1443 60.0498 65.9553C60.2986 65.769 62.7892 63.9656 62.7892 63.9656L65.9018 68.8764L68.3302 75.1534L69.0765 81.2441L60.3608 80.1264L53.5111 80.4989L50.0875 82.4266C50.0875 82.4266 48.0945 85.5961 48.0945 85.4098C48.0945 85.2235 46.9101 81.0578 46.9101 81.0578L44.6061 77.2673L41.9911 74.4704H41.9965Z" fill="white"/>
<path d="M43.4811 75.0507C45.0685 76.3169 46.3557 78.3148 47.3211 81.0037C47.7727 82.2672 48.0621 83.4308 48.2324 84.2569C49.2411 82.5561 50.6094 81.19 53.0081 80.399C57.6783 78.8601 67.5946 80.1209 67.5946 80.1209C67.2917 71.9244 63.2598 66.7274 62.1321 65.4288C60.8936 66.3521 56.7453 69.4001 52.9864 71.5897C49.6305 73.5443 45.4876 74.6134 43.4838 75.0507M47.4536 87.4265L47.2535 85.8498C47.2535 85.8309 47.1237 83.7791 46.1691 81.5491C44.671 78.0475 40.4172 74.2975 40.4172 74.2975L41.8099 74.0599C41.8694 74.0491 48.0458 72.9476 52.3942 70.4126C56.7994 67.8478 63.3192 62.7722 63.3192 62.7722C63.3192 62.7722 69.8634 72.216 70.0527 82.4319C70.0527 82.4319 61.0369 80.8282 57.4808 81.1792C54.471 81.4735 50.5229 81.7705 48.4001 85.7958L47.4563 87.4265H47.4536Z" fill="black"/>
<path d="M46.0988 79.6916L45.9149 78.5361C46.0096 78.5226 55.404 76.9865 65.7612 71.0227L66.3453 72.0351C55.788 78.1096 46.1908 79.6727 46.0961 79.6889" fill="black"/>
<path d="M23.1427 47.0434L26.4148 43.8712L27.3775 43.0072L30.363 46.1795C30.363 46.1795 34.7925 44.0656 34.7925 43.7767C34.7925 43.4878 34.0218 38.6822 34.0218 38.6822L43.2648 34.8378L56.3586 32.9155L58.476 34.3572L56.6453 38.1072L49.5197 40.1266L40.566 43.6822L33.4404 47.7183L28.5295 51.3711L25.8334 53.2934L23.1373 47.0461L23.1427 47.0434Z" fill="#47421A"/>
<path d="M25.6441 41.085L30.363 46.1795L34.7925 43.7767L34.1462 37.6833L28.1482 36.76L25.6441 41.085Z" fill="#FCDE00"/>
<path d="M25.1628 53.0045L34.6951 46.6601L44.0355 41.7573L54.9146 38.3934L58.3787 36.9517L63.4815 35.4155L65.6963 35.3184L69.2604 36.2795L69.7932 39.0008L62.7568 41.1148L56.7156 41.8815L39.606 51.8517L31.0363 54.6379L26.0525 57.9181L25.1628 53.0045Z" fill="#FCDE00"/>
<path d="M70.9127 35.8313L69.7147 37.1353L70.4773 39.9322L72.0322 40.5532L73.0652 39.6299L73.3086 38.2449L72.4703 36.7627L70.9127 35.8313Z" fill="#FCDE00"/>
<path d="M26.8962 58.0207C27.0206 57.7723 29.5112 55.9689 29.5112 55.9689L44.5791 47.2055L55.2256 43.1639L57.7161 42.9155L59.5848 43.4123L57.2186 44.9673L52.6728 49.071L46.1989 55.1617L39.725 59.8862L31.7557 64.9834L27.3343 67.1594L24.1595 68.3419L23.1022 66.6006L24.4083 63.3069L25.9659 60.572L26.8989 58.0234L26.8962 58.0207Z" fill="#666666"/>
<path d="M69.3253 37.6239C68.1057 37.5591 66.878 37.5753 65.6395 37.6401C65.8207 38.1126 65.991 38.5527 66.1587 38.9873C67.2701 38.828 68.3735 38.6687 69.466 38.5122C69.42 38.2287 69.374 37.9398 69.3226 37.6239M71.9106 39.7109C72.5406 39.7001 73.0707 39.098 72.9598 38.5689C72.7651 37.6671 72.2459 37.057 71.3427 36.7843C70.9398 36.6628 70.572 36.7438 70.2989 37.0138C70.0203 37.2892 69.8932 37.6725 70.0555 38.0667C70.1745 38.4825 70.3394 38.7389 70.5639 39.0089C70.9154 39.4355 71.4211 39.6272 71.9106 39.7109ZM63.3679 36.7033C62.6486 36.7546 60.2743 37.0138 59.8173 37.1299C59.4793 37.2163 59.4117 37.5403 59.6686 37.7724C60.104 38.1666 60.4447 38.6175 60.4717 39.2195C60.4934 39.7109 60.4582 40.2049 60.4258 40.6963C60.4176 40.8286 60.4393 40.9986 60.5583 41.0283C60.6935 41.0634 60.8422 41.0283 60.972 41.0013C61.8617 40.8178 62.7487 40.6261 63.6303 40.4128C64.1413 40.2886 64.647 40.132 65.1473 39.97C65.5259 39.8647 65.5989 39.4544 65.5259 39.2276C65.2879 38.4987 65.0013 37.7886 64.5984 37.1299C64.3577 36.5683 63.3734 36.7114 63.3734 36.7033M28.4971 37.4863C28.4727 37.5133 26.5284 41.0931 26.5987 41.1687C27.9157 42.5915 29.9628 44.9079 30.6767 45.5208C31.9341 44.8701 34.6573 43.5337 34.6356 43.4257C34.3165 41.6628 33.4377 38.2638 33.3214 38.2476C32.2451 38.0964 29.1569 37.5807 28.4971 37.4863ZM30.3846 56.2361C29.9384 56.5547 29.4868 56.8706 29.0433 57.1945C28.7702 57.397 28.5106 57.613 28.251 57.829C28.1645 57.8992 28.0752 57.9748 28.0211 58.0693C27.7129 58.5768 27.4073 59.0871 27.1179 59.6054C26.2039 61.2361 25.344 62.8937 24.7598 64.6756C24.5841 65.2101 24.4353 65.7636 24.3515 66.3197C24.2677 66.8867 24.4921 67.316 25.1979 67.1837C25.4602 67.1351 25.7198 67.073 25.9767 66.9974C27.4614 66.5438 28.8351 65.8419 30.1683 65.0671C34.4815 62.5563 38.6217 59.7917 42.5969 56.7788C45.4552 54.6136 48.2243 52.3485 50.7636 49.808C52.6647 47.9046 54.7063 46.1606 56.8562 44.5434C57.2213 44.2708 57.589 44.0008 57.9568 43.7308C57.9081 43.72 57.873 43.7308 57.8405 43.7524C57.0347 44.2654 56.2153 44.7594 55.4284 45.2994C53.1893 46.8382 51.1205 48.5958 49.0491 50.3479C46.9939 52.0893 44.9009 53.7793 42.6645 55.2885C37.5832 58.7145 32.3181 61.8381 26.9935 64.8673C26.9638 64.8862 26.9286 64.8943 26.8935 64.9078L26.8556 64.87C27.9021 62.5482 29.5734 60.6583 31.158 58.7037C30.4603 59.1141 29.814 59.6 29.211 60.1319C28.6079 60.6664 28.0211 61.2226 27.4073 61.7868C28.1617 59.7917 29.2191 57.9937 30.39 56.2388M27.6101 56.5331C27.8967 56.3279 28.1617 56.1389 28.4295 55.9472C33.2944 52.4673 38.381 49.3544 43.738 46.6844C48.8166 44.1547 54.0627 42.0543 59.5307 40.5316C59.7713 40.4641 59.8579 40.3642 59.8795 40.1212C59.9309 39.5057 59.8444 38.9387 59.4468 38.442C59.3711 38.3475 59.2954 38.2989 59.1602 38.3259C58.5436 38.4474 57.9244 38.5419 57.3078 38.6688C53.8329 39.3707 50.4445 40.3696 47.1345 41.6412C40.7174 44.1088 34.7654 47.416 29.238 51.4926C28.3456 52.1514 27.4884 52.856 26.6176 53.5418C26.5473 53.5985 26.4716 53.639 26.523 53.7685C26.8881 54.6784 27.2423 55.5909 27.6101 56.5304M26.6961 51.7059C26.7529 51.6627 31.707 47.8156 36.6259 45.2103C41.3421 42.7103 44.2708 41.3064 49.8252 39.8351C50.1335 39.7541 54.0736 38.7389 55.7556 37.4107C56.2072 37.0543 56.5506 36.571 56.7129 36.104C56.8995 35.5748 56.7102 35.0457 56.1828 34.8513C55.7988 34.7109 55.3851 34.6164 54.9795 34.5759C49.187 33.7876 44.3762 35.5748 41.3097 36.6574C39.1409 37.4242 37.0235 38.2989 34.9818 39.3572C34.8898 39.4058 34.7925 39.4247 34.8222 39.584C35.0872 41.0121 35.3414 42.443 35.601 43.8712C35.6281 44.0197 35.6092 44.1061 35.455 44.1844C34.4301 44.7 33.4106 45.2292 32.3884 45.7529C31.7475 46.0823 31.1093 46.4117 30.463 46.7437C29.6139 45.8258 28.7729 44.916 27.9265 44.0008C26.7285 44.9997 25.6117 46.0418 24.6544 47.2459C24.6165 47.2918 24.6219 47.4079 24.6517 47.47C25.0465 48.3069 25.4521 49.1411 25.8523 49.9781C26.2336 50.7691 26.304 50.8906 26.6934 51.7032M78.9118 28.8362C78.8712 28.7687 78.8307 28.7012 78.7874 28.6337C78.0491 27.4539 76.9891 26.6143 75.8344 25.8854C73.8846 24.6543 71.7537 23.8416 69.5417 23.2261C65.5178 22.103 61.3966 21.6521 57.2348 21.5225C54.1898 21.4281 51.153 21.5765 48.1189 21.86C45.9149 22.0652 43.7191 22.3379 41.5395 22.7239C39.7574 23.0398 37.9781 23.3908 36.2122 23.7876C31.8206 24.7731 27.5344 26.1013 23.3753 27.8346C20.4439 29.0549 17.6099 30.4669 14.9544 32.2136C13.2128 33.3583 11.5497 34.6029 10.1327 36.1445C8.98074 37.3999 8.01804 38.7821 7.45556 40.4074C7.2203 41.085 7.01478 41.7789 7.06616 42.5024C7.18785 44.2357 7.9937 45.6557 9.18626 46.8787C9.3377 47.0353 9.51077 47.1676 9.68113 47.3161C9.70006 47.2783 9.71088 47.2675 9.71088 47.2567C9.70818 47.2162 9.70277 47.1784 9.69465 47.1379C9.51618 46.0526 9.58919 44.9835 9.89747 43.9279C10.3491 42.3755 11.1657 41.0229 12.1663 39.7703C13.5914 37.9857 15.3005 36.5062 17.1421 35.1699C19.5083 33.4528 22.0475 32.0246 24.6868 30.7746C29.0325 28.712 33.5621 27.157 38.216 25.9664C42.0749 24.9782 45.9852 24.2601 49.9442 23.8227C52.1184 23.5825 54.3007 23.4232 56.4857 23.3692C59.0493 23.3044 61.6075 23.3746 64.1603 23.6311C66.4535 23.8632 68.7223 24.2277 70.9452 24.846C73.8576 25.6586 76.6186 26.7736 78.9064 28.8389M51.7074 30.753C51.7101 30.7314 51.7128 30.7125 51.7155 30.6909C51.7452 30.6909 51.7777 30.6828 51.8074 30.6828C52.7241 30.6586 53.6409 30.6424 54.5549 30.6073C56.3532 30.5371 58.1434 30.3832 59.9147 30.043C60.7665 29.8783 61.6102 29.719 62.4052 29.3573C62.8487 29.1548 63.3436 28.9604 63.5789 28.3611C63.7087 28.0587 63.541 27.6888 63.3301 27.4377C63.1462 27.2217 62.9921 27.0274 62.5188 26.7574C62.0294 26.5063 58.4787 23.8659 48.4271 24.8676C47.3698 24.9728 46.3206 25.1591 45.274 25.34C42.532 25.8125 39.8169 26.4172 37.1343 27.157C33.5648 28.1424 30.0709 29.3438 26.6825 30.8421C23.3104 32.3351 20.0761 34.0711 17.1177 36.2876C15.5953 37.4296 14.1512 38.6607 12.9505 40.1455C11.9905 41.3334 11.2063 42.6239 10.7439 44.0926C10.3464 45.3534 10.2247 46.6115 10.7466 47.875C10.8385 48.0963 10.9575 48.2556 11.163 48.3825C12.7693 49.3814 14.5028 50.0969 16.2984 50.6692C19.0702 51.5493 21.769 51.8409 24.6544 52.1514C24.9978 52.1892 21.8961 47.6617 21.915 47.4592C21.9339 47.2513 23.2915 44.7783 26.7177 42.3863C26.7745 42.3323 26.8394 42.9668 26.9016 42.9074C26.3905 42.3512 25.8929 41.8113 25.3926 41.274C25.3115 41.1876 25.298 41.1282 25.3548 41.0175C26.1525 39.4922 26.9449 37.9668 27.7318 36.436C27.7967 36.3092 27.8724 36.2849 27.9995 36.3092C28.2212 36.3497 28.4484 36.3794 28.6728 36.4117C30.5171 36.679 32.3614 36.9463 34.2084 37.2028C34.3733 37.2244 34.4166 37.2946 34.4382 37.435C34.4896 37.7616 34.5518 38.0883 34.614 38.4285C34.66 38.4069 34.2598 37.8939 34.2868 37.8777C35.5307 37.0705 38.4297 35.9636 40.3253 35.2346C44.579 33.6013 48.8869 32.7185 53.3083 32.0111C54.0817 31.8383 54.8578 31.6791 55.5879 31.5225C54.3196 31.2714 53.0135 31.0122 51.7074 30.753ZM76.1291 40.0213C75.9236 39.8135 75.7749 39.7622 75.5504 39.8836C75.426 39.9511 75.2178 39.916 75.061 39.8728C74.604 39.7541 74.1524 39.6083 73.6981 39.4733C73.6277 39.4517 73.5601 39.4274 73.4952 39.4058C73.3925 39.5516 73.3113 39.7028 73.2005 39.8216C72.6569 40.3966 71.9457 40.7611 71.2318 40.5505C70.7613 40.4101 69.8635 40.3723 69.7066 39.6812C69.6309 39.341 69.9257 39.3437 69.804 39.3653C67.6839 39.7568 65.699 40.5262 63.7817 41.4873C60.8774 42.9452 58.2272 44.7864 55.7015 46.8193C53.8734 48.2934 52.1752 49.9079 50.4905 51.5439C47.9188 54.0466 43.5812 57.8074 40.7012 59.9456C36.9964 62.6967 33.1591 65.2452 29.1731 67.5697C27.8616 68.3338 26.5149 69.0249 25.0627 69.4947C24.5029 69.6756 23.9324 69.8078 23.3347 69.8024C22.3396 69.7889 21.7771 69.2328 21.7419 68.2339C21.7122 67.316 21.9502 66.4493 22.2476 65.5962C22.9372 63.6092 24.4651 61.3792 25.8821 58.8549C26.02 58.6092 23.5889 53.4527 24.2947 53.2151C24.3921 53.1827 19.1594 53.4959 13.9673 51.8355C11.9716 51.1984 10.0327 50.4505 8.26412 49.3112C6.88227 48.423 5.66537 47.362 4.82166 45.9284C3.78053 44.1547 3.49389 42.2702 4.13208 40.3345C4.62425 38.8388 5.37873 36.9787 7.18244 34.9269C9.00238 32.813 10.13 31.9274 12.4854 30.4642C16.1658 28.1775 20.1113 26.4577 24.1974 25.0376C28.0563 23.6959 31.9963 22.6537 36.0067 21.8951C37.7996 21.5549 39.6006 21.2688 41.407 21.015C42.8348 20.8152 44.2762 20.6883 45.7121 20.5533C48.2379 20.313 53.0838 19.9891 55.6204 20.0134C58.3381 20.0404 63.7276 20.2105 66.421 20.5911C70.2258 21.0717 72.2946 21.752 74.5201 22.7482C76.3698 23.5771 78.0843 24.441 79.7285 25.6424C80.8399 26.455 81.808 27.4026 82.4949 28.6121C83.5657 30.4993 83.6117 32.4566 82.8599 34.4571C82.2623 36.0446 81.2022 37.5942 79.7636 38.469C77.4596 39.8701 76.5753 39.5516 76.1291 40.0213Z" fill="black"/>
<path d="M30.3819 43.9252L29.8708 41.841L27.7507 41.4846L29.5544 40.5559L29.0433 38.4717L30.6685 39.9781L32.4695 39.0494L31.6718 40.9123L33.2997 42.4187L31.1796 42.0624L30.3819 43.9252Z" fill="black"/>
<path d="M45.7608 91.7732L38.3837 98.5793C38.3837 98.5793 37.356 106.552 43.7055 115.269L50.3363 109.862L49.8685 103.523C49.8685 103.523 49.9307 99.9859 48.5623 96.811C47.1913 93.6333 45.7608 91.7759 45.7608 91.7759" fill="#47421A"/>
<path d="M45.7608 91.7732L45.2497 91.2224L37.6725 98.2148L37.6373 98.4848C37.6346 98.5118 37.5697 99.0221 37.5697 99.9049C37.5697 101.268 37.7211 103.533 38.4891 106.301C39.2571 109.068 40.6417 112.343 43.0971 115.712L43.565 116.355L51.1151 110.196L50.6203 103.466L49.8685 103.52L50.6203 103.533C50.6203 103.533 50.6203 103.501 50.6203 103.447C50.6203 103.161 50.6067 102.197 50.431 100.92C50.2552 99.643 49.9172 98.0528 49.2519 96.5086C47.8484 93.2554 46.3827 91.3493 46.3557 91.3142L45.8527 90.6609L45.247 91.2197L45.7581 91.7705L45.1604 92.2295C45.1767 92.251 46.5504 94.0518 47.8674 97.1025C48.4569 98.4686 48.776 99.9373 48.9382 101.125C49.1032 102.31 49.114 103.212 49.114 103.447C49.114 103.469 49.114 103.485 49.114 103.496V103.506L49.3195 103.509H49.114V103.539L49.5548 109.524L43.2269 114.683L43.7029 115.267L44.3113 114.824C41.9695 111.608 40.6633 108.509 39.9359 105.893C39.2112 103.28 39.0705 101.152 39.0705 99.8995C39.0705 99.4945 39.0841 99.1813 39.1003 98.9708C39.1084 98.8655 39.1138 98.7872 39.1192 98.7386C39.1192 98.7143 39.1246 98.6954 39.1246 98.6846V98.6738L38.3783 98.5766L38.8894 99.1301L46.2665 92.3239L45.7554 91.7705L45.7608 91.7732Z" fill="black"/>
<path d="M50.1254 109.103L43.1215 114.697C43.1215 114.697 44.2572 117.65 47.4807 119.886L50.9664 117.073L51.2476 114.694L50.1281 109.1L50.1254 109.103Z" fill="#754D24"/>
<path d="M50.1254 109.103L49.498 108.32L41.9208 114.373L42.1831 115.056C42.2047 115.11 42.5184 115.914 43.2594 117.013C44.0003 118.109 45.1712 119.505 46.9046 120.709L47.5239 121.138L51.9156 117.596L52.2617 114.656L50.7852 107.291L49.498 108.32L50.1254 109.103L49.141 109.3L50.2308 114.737L50.0172 116.552L46.8479 119.108L47.4779 119.888L48.0512 119.065C46.5666 118.034 45.5552 116.832 44.9225 115.893C44.6061 115.423 44.3843 115.021 44.2437 114.743C44.1734 114.602 44.1247 114.494 44.0923 114.424C44.076 114.389 44.0652 114.362 44.0598 114.349L44.0544 114.335L43.5054 114.548L44.0544 114.338L43.1187 114.697L43.7461 115.48L50.75 109.886L50.1227 109.103H50.1254Z" fill="black"/>
<path d="M80.2909 87.0998C80.2909 87.0998 77.5002 85.6851 75.591 85.2342C73.8792 84.8293 68.4924 86.7569 67.9327 89.0868C67.9327 89.0868 62.1105 89.616 60.8963 93.9977C60.8963 93.9977 55.6961 95.3665 54.8578 99.4674L52.0887 101.271C52.0887 101.271 50.4066 102.575 50.5013 105.374C50.5959 108.171 50.3147 113.765 51.8074 116.657C51.8074 116.657 53.9546 118.895 58.2516 120.199C62.5486 121.503 67.4026 122.064 67.4026 122.064L71.3562 124.332C71.3562 124.332 86.6404 119.918 91.4026 112.275L87.8546 109.106L90.6562 99.0354C90.6562 99.0354 89.5826 95.353 87.1542 90.6905L81.8323 94.1867L79.4499 92.6019L80.2909 87.0998Z" fill="#ED2124"/>
<path d="M80.2909 87.0998L80.7831 86.1306C80.7831 86.1306 80.0584 85.7634 79.093 85.3423C78.6116 85.1317 78.0654 84.9049 77.5083 84.6997C76.9512 84.4945 76.3834 84.3083 75.8398 84.1787C75.5721 84.1166 75.3125 84.0977 75.0448 84.095C74.704 84.095 74.3525 84.1301 73.982 84.1895C73.3357 84.2948 72.6353 84.481 71.9268 84.7294C70.864 85.1074 69.7824 85.623 68.8656 86.2737C68.4086 86.6004 67.9922 86.9621 67.6433 87.3779C67.4703 87.5858 67.3134 87.8099 67.1809 88.0501C67.0484 88.2904 66.9429 88.5523 66.8753 88.8304L67.9327 89.0841L67.8353 88.0042C67.8029 88.0069 67.3999 88.0447 66.7834 88.1743C65.8585 88.3687 64.4523 88.7602 63.0921 89.5917C62.4134 90.0075 61.7427 90.5366 61.1694 91.217C60.5961 91.8946 60.1229 92.7261 59.8525 93.7061L60.9017 93.995L60.6259 92.9448C60.5637 92.9637 59.1818 93.3255 57.6323 94.265C56.8589 94.7374 56.0395 95.3557 55.3364 96.1737C54.6333 96.9891 54.0492 98.0177 53.7977 99.2488L54.8632 99.4674L54.2683 98.5576L51.4586 100.385L51.4234 100.412C51.3504 100.469 50.8583 100.863 50.3715 101.646C50.1281 102.038 49.8874 102.526 49.709 103.112C49.5305 103.698 49.4115 104.381 49.4115 105.15C49.4115 105.237 49.4115 105.323 49.4169 105.41C49.4385 106.079 49.4385 106.951 49.4494 107.92C49.4656 109.376 49.5034 111.052 49.6846 112.672C49.7766 113.482 49.9037 114.281 50.0876 115.034C50.2714 115.79 50.5121 116.503 50.8447 117.151L50.9177 117.291L51.0259 117.405C51.0692 117.451 51.6641 118.061 52.8134 118.836C53.9627 119.61 55.6718 120.547 57.9379 121.236C60.1526 121.908 62.4756 122.38 64.2549 122.688C66.0343 122.996 67.2674 123.139 67.281 123.139L67.4054 122.059L66.8645 123.001L71.2183 125.501L71.6618 125.372C71.6942 125.361 75.5586 124.246 80.0584 122.151C82.3083 121.101 84.7177 119.807 86.8946 118.266C87.9844 117.494 89.0147 116.662 89.9396 115.761C90.8644 114.859 91.6784 113.89 92.3328 112.845L92.8142 112.07L89.0878 108.741L91.792 99.0247L91.7054 98.7277C91.6919 98.6818 90.5994 94.9372 88.1251 90.1856L87.568 89.1192L81.8405 92.88L80.6344 92.0782L81.4889 86.4843L80.7885 86.1279L80.2964 87.0971L79.2201 86.9324L78.2763 93.1176L81.8323 95.4853L87.7573 91.5949L87.1597 90.6878L86.1942 91.1873C87.3841 93.474 88.244 95.5204 88.8038 96.9918C89.0824 97.7288 89.2879 98.32 89.4231 98.7223C89.4907 98.9248 89.5394 99.0787 89.5718 99.184C89.588 99.2353 89.5989 99.2758 89.607 99.3L89.6151 99.327V99.3324L90.6589 99.0301L89.6097 98.7385L86.6269 109.457L90.6805 113.077L91.4053 112.267L90.4831 111.695C89.945 112.559 89.2419 113.401 88.4171 114.205C86.9758 115.612 85.1639 116.9 83.2602 118.026C80.4018 119.713 77.3379 121.036 74.9961 121.929C73.8252 122.378 72.8354 122.718 72.1404 122.945C71.7916 123.058 71.5185 123.144 71.3346 123.201C71.2426 123.231 71.1723 123.25 71.1237 123.266C71.0993 123.274 71.0831 123.277 71.0723 123.282H71.0587V123.287L71.3616 124.33L71.9025 123.387L67.7542 121.006L67.5324 120.979H67.5216C67.3918 120.963 66.1668 120.814 64.4659 120.518C62.7649 120.221 60.588 119.767 58.5734 119.154C56.5425 118.536 55.0309 117.702 54.033 117.032C53.5327 116.697 53.165 116.403 52.9243 116.198C52.8053 116.095 52.7188 116.014 52.6647 115.963C52.6376 115.936 52.6187 115.92 52.6079 115.909L52.5971 115.898L52.1157 116.363L52.5998 115.898H52.5971L52.1157 116.363L52.5998 115.898L51.8155 116.649L52.781 116.152C52.4781 115.569 52.232 114.767 52.0616 113.86C51.802 112.496 51.6966 110.893 51.656 109.376C51.6344 108.617 51.629 107.877 51.6235 107.194C51.6181 106.508 51.6127 105.882 51.5965 105.334C51.5965 105.269 51.5938 105.207 51.5938 105.148C51.5938 104.597 51.6749 104.133 51.7939 103.744C51.9724 103.161 52.2374 102.74 52.4483 102.47C52.5538 102.335 52.6457 102.237 52.7052 102.181C52.735 102.151 52.7566 102.132 52.7674 102.124L52.7755 102.119L52.4186 101.681L52.7647 102.127L52.7755 102.119L52.4186 101.681L52.7647 102.127L52.0968 101.271L52.6917 102.181L55.8421 100.132L55.9341 99.6861C56.1017 98.8681 56.483 98.1851 56.9914 97.5911C57.3727 97.1456 57.827 96.7596 58.2976 96.4302C59.0007 95.9388 59.7416 95.5852 60.296 95.3611C60.5745 95.2477 60.8044 95.1694 60.9612 95.1181C61.0396 95.0911 61.0991 95.0749 61.1397 95.0641C61.1586 95.0587 61.1721 95.0533 61.1802 95.0533H61.1884L61.0099 94.3892L61.1857 95.0533L61.0072 94.3892L61.183 95.0533L61.7887 94.894L61.9564 94.292C62.078 93.8492 62.2565 93.4632 62.4783 93.1149C62.865 92.5074 63.3869 92.0134 63.9791 91.6138C64.8661 91.0145 65.9018 90.6392 66.7077 90.4313C67.1106 90.326 67.454 90.2612 67.6947 90.2234C67.8137 90.2045 67.9056 90.191 67.9678 90.1829C67.9976 90.1802 68.0192 90.1775 68.0327 90.1748H68.0463L67.9895 89.5782L68.0435 90.1748L67.9868 89.5782L68.0408 90.1748L68.817 90.1047L68.9981 89.3487C69.0225 89.2434 69.082 89.103 69.1982 88.9411C69.3984 88.6522 69.7661 88.3039 70.2394 87.9799C70.9506 87.4886 71.8889 87.0458 72.7867 86.7407C73.2356 86.5869 73.6764 86.4681 74.0685 86.3898C74.4607 86.3088 74.8068 86.2737 75.0529 86.2737C75.1989 86.2737 75.3071 86.2872 75.3476 86.298C75.7587 86.3952 76.259 86.5545 76.7619 86.7407C77.5164 87.0188 78.2871 87.3563 78.8604 87.6209C79.1471 87.7532 79.3877 87.8692 79.5527 87.9502C79.6365 87.9907 79.7014 88.0231 79.7447 88.0447C79.7663 88.0555 79.7826 88.0636 79.7934 88.069L79.8042 88.0744H79.8069L80.2991 87.1079L80.2909 87.0998Z" fill="black"/>
<path d="M51.153 115.909C51.153 115.909 62.8271 111.808 75.4342 102.016C75.4342 102.016 77.2081 100.618 78.8901 101.924C81.4267 103.895 82.0649 103.976 79.9177 105.747C77.7706 107.518 67.7785 114.419 55.1688 118.614C55.1688 118.614 49.8766 119.297 51.153 115.909Z" fill="#9C1F21"/>
<path d="M51.153 115.909L51.3747 116.538C51.418 116.522 63.1489 112.399 75.8452 102.543H75.8479L75.6234 102.256L75.8452 102.543L75.6207 102.256L75.8425 102.543L75.8506 102.537C75.8884 102.51 76.0777 102.375 76.3455 102.256C76.6159 102.135 76.9593 102.032 77.3136 102.035C77.4974 102.035 77.6813 102.062 77.876 102.124C78.068 102.189 78.2682 102.289 78.4764 102.451C78.855 102.745 79.1876 102.996 79.4742 103.212C79.9015 103.536 80.2179 103.79 80.3883 103.968C80.4748 104.057 80.5208 104.122 80.537 104.154C80.5451 104.17 80.5478 104.176 80.5478 104.176L80.5965 104.162H80.5478V104.176L80.5965 104.162H80.5478H80.5992L80.5478 104.157V104.162H80.5992L80.5478 104.157L80.5613 104.16H80.5478C80.5478 104.16 80.5424 104.181 80.5127 104.233C80.4667 104.311 80.3612 104.446 80.1908 104.613C80.0205 104.783 79.7879 104.989 79.4932 105.229C79.2417 105.437 78.8577 105.734 78.3628 106.093C76.6267 107.356 73.5087 109.419 69.4605 111.619C65.4123 113.819 60.4284 116.155 54.9605 117.974L55.1714 118.609L55.0849 117.947C55.0849 117.947 54.6739 117.999 54.1384 117.999C53.8491 117.999 53.5219 117.985 53.2028 117.942C52.9648 117.91 52.7322 117.864 52.524 117.799C52.213 117.702 51.9723 117.567 51.8344 117.424C51.7641 117.351 51.7154 117.281 51.6803 117.194C51.6451 117.108 51.6235 117.005 51.6235 116.865C51.6235 116.689 51.6641 116.449 51.7803 116.141L51.153 115.906L50.5256 115.671C50.366 116.093 50.2849 116.49 50.2849 116.865C50.2849 117.127 50.3255 117.38 50.4093 117.613C50.5526 118.02 50.8203 118.344 51.1259 118.579C51.3558 118.755 51.6073 118.884 51.8642 118.984C52.2509 119.135 52.6538 119.219 53.0432 119.27C53.4326 119.322 53.8085 119.338 54.1384 119.338C54.7739 119.338 55.2363 119.278 55.2553 119.276L55.3202 119.268L55.3824 119.246C61.74 117.129 67.4269 114.338 71.7997 111.851C73.9847 110.607 75.8425 109.44 77.2919 108.469C78.0167 107.983 78.6386 107.548 79.1497 107.175C79.6608 106.803 80.061 106.495 80.345 106.26C80.7993 105.885 81.1454 105.574 81.4104 105.264C81.543 105.107 81.6538 104.948 81.7404 104.767C81.8269 104.586 81.8837 104.381 81.8837 104.165C81.8837 104.011 81.8539 103.86 81.8053 103.725C81.7187 103.485 81.5781 103.293 81.424 103.12C81.1887 102.861 80.8994 102.626 80.5505 102.351C80.199 102.078 79.7852 101.77 79.3012 101.398C78.9767 101.144 78.6359 100.969 78.2979 100.858C77.9599 100.747 77.6273 100.701 77.3163 100.701C76.6483 100.701 76.0886 100.901 75.6883 101.093C75.2881 101.284 75.0474 101.473 75.0177 101.495H75.0204C68.7601 106.352 62.727 109.805 58.2624 112.04C56.0314 113.158 54.1925 113.971 52.9134 114.502C52.2752 114.767 51.7749 114.964 51.4369 115.094C51.2692 115.159 51.1394 115.207 51.0529 115.237C51.0096 115.253 50.9772 115.264 50.9556 115.272L50.9312 115.28H50.9258L50.6311 115.385L50.5202 115.677L51.1476 115.912L51.153 115.909Z" fill="black"/>
<path d="M55.7285 118.428C55.7285 118.428 66.9348 114.978 79.915 105.655C79.915 105.655 81.3158 104.816 82.7166 105.936C85.2261 107.939 84.4906 107.893 82.3434 109.664C80.1963 111.436 72.8814 116.595 60.2716 120.79C60.2716 120.79 53.9221 122.345 55.7258 118.428" fill="#9C1F21"/>
<path d="M55.7285 118.428L55.926 119.068C55.9719 119.054 67.2404 115.582 80.3072 106.198L79.9151 105.655L80.2585 106.228L80.0881 105.944L80.2531 106.23H80.2585L80.0881 105.944L80.2531 106.23C80.2531 106.23 80.2774 106.217 80.3207 106.195C80.4532 106.133 80.7642 106.017 81.1238 106.02C81.2969 106.02 81.4808 106.044 81.6755 106.109C81.8702 106.174 82.0784 106.279 82.2975 106.454C82.841 106.889 83.2196 107.218 83.4278 107.451C83.5333 107.567 83.5928 107.653 83.6171 107.699C83.6306 107.723 83.6334 107.734 83.6334 107.737L83.7118 107.721H83.6307V107.737L83.7118 107.721H83.6307H83.7226L83.6334 107.688L83.6279 107.721H83.7199L83.6307 107.688V107.694C83.6198 107.712 83.5793 107.772 83.4981 107.853C83.3765 107.977 83.1682 108.15 82.8951 108.363C82.622 108.576 82.2894 108.833 81.9108 109.146C81.3943 109.573 80.5478 110.215 79.3796 111.004C75.8723 113.366 69.447 117.029 60.0526 120.153L60.2635 120.787L60.104 120.14C60.104 120.14 59.7984 120.212 59.3576 120.285C58.9195 120.355 58.3408 120.426 57.7892 120.426C57.516 120.426 57.2483 120.409 57.013 120.372C56.8373 120.342 56.6804 120.304 56.5506 120.256C56.4533 120.22 56.3749 120.177 56.3127 120.137C56.218 120.075 56.1666 120.015 56.1288 119.948C56.0936 119.88 56.0639 119.797 56.0639 119.651C56.0639 119.454 56.1261 119.138 56.3262 118.709L55.7177 118.428L55.1093 118.15C54.8578 118.695 54.7253 119.186 54.7253 119.651C54.7253 119.853 54.7523 120.048 54.8064 120.234C54.9011 120.558 55.0849 120.839 55.3148 121.049C55.4852 121.209 55.6772 121.327 55.8773 121.422C56.1774 121.562 56.4938 121.643 56.8156 121.695C57.1374 121.746 57.4674 121.765 57.7892 121.765C58.4598 121.765 59.1061 121.684 59.5956 121.603C60.0823 121.522 60.4095 121.443 60.4231 121.441L60.4501 121.433L60.4744 121.425C66.8185 119.313 71.8376 116.956 75.545 114.902C77.4001 113.876 78.9253 112.923 80.126 112.113C81.3267 111.303 82.2028 110.639 82.7599 110.177C83.052 109.937 83.317 109.729 83.5576 109.543C83.9173 109.259 84.2202 109.03 84.4717 108.771C84.5961 108.641 84.7123 108.501 84.807 108.325C84.8989 108.155 84.9638 107.942 84.9638 107.721C84.9638 107.488 84.8962 107.267 84.7962 107.078C84.6447 106.795 84.4365 106.557 84.1634 106.295C83.8903 106.033 83.5522 105.747 83.1277 105.41C82.7869 105.137 82.4354 104.953 82.092 104.84C81.7485 104.727 81.4159 104.683 81.1184 104.683C80.6695 104.683 80.2936 104.778 80.0259 104.872C79.7582 104.967 79.5933 105.064 79.5635 105.08L79.5392 105.094L79.5175 105.11C73.068 109.74 67.0592 112.915 62.6676 114.929C60.4717 115.936 58.6788 116.651 57.4403 117.116C56.8211 117.348 56.337 117.515 56.0125 117.626C55.8502 117.683 55.7258 117.723 55.6447 117.748C55.6042 117.761 55.5717 117.772 55.5528 117.777L55.5311 117.785H55.5257L55.2391 117.874L55.1147 118.144L55.7231 118.422L55.7285 118.428Z" fill="black"/>
<path d="M61.8941 120.356C61.8941 120.356 70.2366 117.993 83.3115 109.23C83.3115 109.23 84.9313 108.547 86.2375 109.354C88.6929 110.871 88.4928 111.319 86.5349 112.877C84.5771 114.435 78.0275 119.033 66.54 122.726C66.54 122.726 60.9558 123.228 61.8941 120.356Z" fill="#9C1F21"/>
<path d="M61.8941 120.355L62.0753 120.998C62.1348 120.982 70.5449 118.59 83.682 109.783L83.3088 109.23L83.5684 109.845H83.5738C83.6009 109.832 83.7469 109.775 83.9605 109.724C84.1742 109.673 84.4554 109.627 84.7502 109.627C84.9422 109.627 85.1396 109.646 85.3316 109.691C85.5236 109.737 85.7075 109.81 85.8859 109.921C86.4917 110.293 86.9135 110.596 87.1434 110.817C87.2597 110.928 87.3246 111.014 87.3516 111.063C87.3651 111.087 87.3706 111.103 87.3733 111.109V111.117V111.13C87.3679 111.149 87.3516 111.192 87.3029 111.263C87.2326 111.368 87.0947 111.522 86.8946 111.705C86.6945 111.889 86.4322 112.105 86.1212 112.356C85.1747 113.109 83.0763 114.629 79.7933 116.417C76.5104 118.204 72.0376 120.258 66.3372 122.091L66.5427 122.729L66.4832 122.062C66.4832 122.062 66.1235 122.094 65.6287 122.091C65.3014 122.091 64.912 122.078 64.5172 122.037C64.2225 122.005 63.925 121.959 63.6546 121.892C63.4518 121.84 63.2652 121.781 63.1056 121.711C62.8649 121.605 62.6919 121.481 62.5972 121.365C62.5486 121.306 62.5161 121.252 62.4945 121.19C62.4728 121.128 62.4593 121.057 62.4566 120.966C62.4566 120.863 62.4755 120.731 62.5296 120.566L61.8941 120.358L61.2586 120.15C61.1694 120.428 61.1207 120.701 61.1207 120.966C61.1207 121.249 61.1775 121.524 61.2857 121.767C61.3803 121.981 61.5128 122.167 61.6643 122.326C61.932 122.604 62.2511 122.796 62.5864 122.942C63.0921 123.158 63.6383 123.274 64.1684 123.344C64.6984 123.412 65.2095 123.431 65.6259 123.431C66.1938 123.431 66.5859 123.395 66.5995 123.393L66.6725 123.387L66.7428 123.366C72.5271 121.506 77.0756 119.416 80.4288 117.591C83.7821 115.766 85.94 114.208 86.9487 113.404C87.4409 113.012 87.8357 112.683 88.144 112.345C88.2981 112.175 88.4306 112 88.5334 111.8C88.6361 111.6 88.7064 111.368 88.7064 111.122C88.7064 110.871 88.6307 110.623 88.5144 110.418C88.336 110.104 88.0845 109.859 87.7681 109.602C87.4517 109.349 87.0623 109.087 86.5836 108.792C86.2753 108.601 85.9535 108.477 85.6399 108.401C85.3262 108.325 85.0233 108.298 84.7421 108.298C84.2661 108.298 83.8551 108.377 83.5549 108.455C83.2547 108.533 83.0654 108.612 83.0438 108.622L82.9843 108.647L82.9302 108.682C76.4239 113.042 71.102 115.806 67.4161 117.478C65.5719 118.314 64.1359 118.876 63.1651 119.23C62.6811 119.405 62.3106 119.529 62.0645 119.608C61.9428 119.648 61.8509 119.675 61.7887 119.694C61.7589 119.702 61.7373 119.71 61.7211 119.713L61.7048 119.718H61.7021L61.3587 119.816L61.2478 120.156L61.8833 120.364L61.8941 120.355Z" fill="black"/>
<path d="M68.6168 122.218C68.6168 122.218 77.5975 119.092 87.4814 112.335C87.4814 112.335 88.9038 111.552 90.0342 112.272C92.276 113.701 90.905 114.076 88.8497 115.504C87.1434 116.692 81.9946 119.646 72.2891 123.771C72.2891 123.771 67.8326 124.583 68.6168 122.216" fill="#9C1F21"/>
<path d="M68.6168 122.218L68.8359 122.85C68.871 122.837 77.8977 119.697 87.8573 112.888L87.4787 112.337L87.8032 112.923L87.6139 112.578L87.8005 112.923H87.8032L87.6139 112.578L87.8005 112.923H87.8059C87.8357 112.904 87.9844 112.831 88.1926 112.764C88.4009 112.696 88.6713 112.637 88.9309 112.637C89.0634 112.637 89.1932 112.65 89.3176 112.683C89.442 112.715 89.5583 112.764 89.6746 112.837C90.0558 113.077 90.3046 113.28 90.4236 113.414C90.4858 113.479 90.5129 113.525 90.5183 113.541V113.549L90.5399 113.544L90.521 113.549L90.6318 113.52H90.5183V113.549L90.6318 113.52H90.5183H90.6589L90.5237 113.49V113.52H90.6589L90.5237 113.49L90.5913 113.504L90.5264 113.477V113.487L90.5913 113.501L90.5264 113.474L90.521 113.485C90.5075 113.512 90.448 113.585 90.3398 113.676C90.1802 113.817 89.9179 113.998 89.5934 114.208C89.2689 114.422 88.8849 114.664 88.4685 114.956C88.0628 115.237 87.4355 115.639 86.5701 116.139C83.9795 117.645 79.285 120.069 72.0268 123.155L72.2891 123.771L72.1702 123.115C72.1485 123.12 71.459 123.239 70.7315 123.239C70.4963 123.239 70.2583 123.225 70.0419 123.196C69.8797 123.174 69.731 123.142 69.6093 123.101C69.4227 123.042 69.3064 122.966 69.2604 122.915C69.2361 122.888 69.2253 122.869 69.2145 122.845C69.2063 122.82 69.1955 122.788 69.1955 122.729C69.1955 122.664 69.209 122.561 69.255 122.426L68.6195 122.216L67.984 122.005C67.9029 122.251 67.8596 122.491 67.8569 122.726C67.8569 122.915 67.8867 123.099 67.9462 123.271C68.0516 123.576 68.249 123.825 68.4735 124C68.6412 124.133 68.825 124.23 69.0116 124.303C69.2929 124.413 69.5822 124.478 69.8716 124.516C70.1609 124.554 70.453 124.57 70.7288 124.57C71.6212 124.57 72.3865 124.427 72.4081 124.424L72.4811 124.411L72.5515 124.381C77.419 122.313 81.1455 120.536 83.8767 119.124C85.2423 118.42 86.3592 117.804 87.2435 117.289C88.1304 116.773 88.7849 116.36 89.2338 116.047C89.5502 115.828 89.8503 115.631 90.1316 115.447C90.5534 115.172 90.9239 114.934 91.2349 114.662C91.389 114.524 91.5324 114.378 91.6513 114.192C91.7108 114.098 91.7622 113.995 91.7974 113.879C91.8352 113.763 91.8569 113.639 91.8569 113.509C91.8569 113.312 91.8055 113.12 91.7244 112.953C91.6 112.702 91.4242 112.499 91.2051 112.302C90.9861 112.105 90.7211 111.911 90.3939 111.703C90.1532 111.549 89.899 111.444 89.6502 111.382C89.4014 111.317 89.158 111.292 88.9309 111.292C88.4333 111.292 88.0061 111.406 87.6924 111.514C87.3787 111.622 87.1813 111.73 87.1569 111.743L87.1299 111.76L87.1028 111.778C82.2001 115.132 77.5137 117.586 74.0577 119.2C72.3297 120.007 70.91 120.604 69.923 120.998C69.4308 121.195 69.0441 121.341 68.7845 121.438C68.6547 121.487 68.5546 121.522 68.4897 121.546C68.4573 121.557 68.4329 121.568 68.4167 121.573L68.3978 121.579H68.3924L68.0814 121.689L67.9786 122.002L68.6141 122.213L68.6168 122.218Z" fill="black"/>
<path d="M67.0619 89.5243C67.0619 89.5243 64.5713 97.1079 68.4924 103.944C68.4924 103.944 66.7482 92.1349 69.8634 87.7208L67.0619 89.5243Z" fill="black"/>
<path d="M60.2445 94.5107C60.2445 94.5107 58.5571 102.31 63.1705 108.703C63.1705 108.703 60.2067 97.1376 62.8433 92.4265L60.2445 94.5107Z" fill="black"/>
<path d="M54.6252 98.8979C54.6252 98.8979 52.8702 106.063 57.424 111.884C57.424 111.884 54.563 101.309 57.2402 96.9648L54.6252 98.8979Z" fill="black"/>
<path d="M72.9138 85.3288C72.9138 85.3288 70.2042 82.1592 72.3541 79.4541C74.5039 76.7489 76.743 76.9379 76.743 76.9379L82.5787 84.4432L79.5446 87.008C79.5446 87.008 78.0491 83.9303 72.9138 85.3288Z" fill="#9C1F21"/>
<path d="M72.9138 85.3289L73.5493 84.7862L73.1707 85.1075L73.5493 84.7889C73.5169 84.7484 73.2059 84.3623 72.9138 83.8008C72.7678 83.52 72.6272 83.196 72.5271 82.8532C72.4244 82.5103 72.3622 82.1485 72.3622 81.7868C72.3622 81.4871 72.4054 81.1874 72.5055 80.8877C72.6055 80.5881 72.7624 80.2857 73.0112 79.9725C73.8738 78.8899 74.7121 78.3527 75.3719 78.0719C76.0291 77.7911 76.5158 77.7695 76.651 77.7695C76.67 77.7695 76.6808 77.7695 76.6862 77.7695L76.7051 77.4023L76.6754 77.7695H76.6862L76.7051 77.4023L76.6754 77.7695L76.743 76.938L76.0832 77.4509L81.4294 84.3245L79.0064 86.371L79.5473 87.0081L80.299 86.6436C80.2612 86.568 79.9502 85.9498 79.1795 85.3343C78.7955 85.0265 78.2925 84.7214 77.6651 84.5C77.0377 84.2759 76.286 84.1329 75.4098 84.1329C74.6121 84.1329 73.7116 84.2516 72.6975 84.527L72.9165 85.3316L73.1356 86.1388C74.0253 85.8958 74.777 85.804 75.4071 85.804C76.1021 85.804 76.6537 85.9147 77.0999 86.074C77.7625 86.3116 78.1924 86.6571 78.4575 86.9379C78.59 87.0783 78.6819 87.2025 78.736 87.2835C78.763 87.324 78.782 87.3537 78.7901 87.3699L78.7982 87.3834L78.9037 87.3294L78.7955 87.3834L78.9009 87.3294L78.7928 87.3834L79.3147 87.1215L78.7901 87.3753V87.3834L79.3147 87.1215L78.7901 87.3753L79.2606 88.3445L83.7307 84.5675L77.1757 76.1388L76.8079 76.1092C76.7863 76.1092 76.7322 76.1038 76.6456 76.1038C76.3319 76.1038 75.6153 76.1551 74.7094 76.5411C73.8035 76.9245 72.7191 77.648 71.6942 78.9412C71.3318 79.3975 71.075 79.8807 70.9127 80.3667C70.7504 80.8499 70.6855 81.3332 70.6855 81.7949C70.6855 82.3753 70.791 82.918 70.9397 83.4012C71.1642 84.1302 71.4914 84.7322 71.7645 85.1642C72.0377 85.5961 72.2567 85.8526 72.2756 85.8769L72.6191 86.2792L73.1302 86.1388L72.9111 85.3316L72.9138 85.3289Z" fill="black"/>
<path d="M50.3607 114.492L45.5499 117.988C45.5499 117.988 47.2752 119.432 47.7917 119.432C47.9323 119.432 50.8745 117.38 50.8745 117.38L50.3607 114.489V114.492Z" fill="#A67D52"/>
<path d="M50.3606 114.492L50.1146 114.154L44.8738 117.966L45.2848 118.309C45.2848 118.309 45.7256 118.679 46.234 119.049C46.4882 119.235 46.7613 119.421 47.0182 119.57C47.148 119.643 47.2697 119.708 47.3914 119.759C47.4536 119.783 47.5158 119.805 47.5807 119.824C47.6456 119.84 47.7132 119.853 47.797 119.853C47.8619 119.853 47.8917 119.843 47.9187 119.837C47.9647 119.824 47.989 119.813 48.0134 119.802C48.0566 119.78 48.0945 119.762 48.1405 119.735C48.3081 119.637 48.5677 119.47 48.876 119.265C49.7955 118.652 51.1178 117.731 51.1205 117.729L51.3396 117.575L50.6635 113.763L50.1227 114.157L50.3687 114.494L49.9577 114.567L50.4715 117.459L50.8825 117.386L50.6419 117.043C50.6419 117.043 50.5959 117.075 50.5148 117.129C50.2335 117.326 49.525 117.815 48.876 118.255C48.5515 118.474 48.2405 118.682 48.008 118.833C47.8917 118.908 47.7943 118.968 47.7267 119.006C47.6943 119.025 47.6699 119.038 47.6618 119.043L47.6862 119.097L47.6645 119.043L47.6889 119.097L47.6672 119.043L47.7727 119.286L47.6943 119.033C47.678 119.038 47.6699 119.041 47.6672 119.043L47.7727 119.286L47.6943 119.033L47.8051 119.4V119.016C47.7348 119.016 47.7132 119.027 47.6943 119.033L47.8051 119.4V119.016V119.122L47.8133 119.016H47.8051V119.122L47.8133 119.016C47.8079 119.016 47.7457 119 47.6672 118.962C47.5293 118.9 47.3346 118.784 47.1318 118.649C46.8262 118.447 46.4963 118.198 46.2475 118.004C46.1231 117.907 46.0177 117.82 45.9446 117.761C45.9068 117.731 45.8797 117.707 45.8581 117.691L45.8365 117.672L45.8284 117.667L45.5606 117.988L45.8067 118.325L50.6175 114.829L50.3715 114.492H50.3606Z" fill="black"/>
<path d="M79.3174 97.8017C79.3174 97.8017 86.5674 97.5506 88.482 94.0544L87.4544 90.5123L79.3174 97.8017Z" fill="black"/>
<path d="M74.9149 90.4448L96.7163 70.1561C96.7163 70.1561 104.164 64.0627 107.268 48.936C109.315 38.9603 113.939 21.2094 113.939 21.2094C113.939 21.2094 116.319 9.54098 133.334 4.17114L135.646 5.75051L122.282 52.3215C122.282 52.3215 119.759 60.526 113.969 66.4925C110.067 70.5125 106.024 74.4865 97.7196 81.3169C83.5982 92.9313 78.9469 96.8001 78.9469 96.8001H75.3774L74.9122 90.4502L74.9149 90.4448Z" fill="#754D24"/>
<path d="M74.9149 90.4448L75.5991 91.1792L97.4005 70.8904L96.7163 70.1561L97.3518 70.9309C97.4167 70.8769 99.3502 69.2814 101.665 65.769C103.98 62.2566 106.671 56.8274 108.25 49.1357C109.267 44.1763 110.932 37.2487 112.344 31.571C113.05 28.7309 113.691 26.2039 114.156 24.3843C114.388 23.4744 114.578 22.7428 114.707 22.238C114.772 21.9869 114.824 21.7898 114.856 21.6575C114.891 21.5252 114.908 21.4577 114.908 21.4577L114.913 21.4307L114.918 21.4037L114.161 21.2498L114.918 21.4064L114.77 21.3767L114.918 21.4091C114.924 21.3821 115.521 18.5933 118.145 15.1862C119.456 13.4799 121.273 11.6171 123.791 9.85143C126.306 8.08849 129.521 6.42273 133.632 5.12414L133.329 4.16843L132.761 4.99726L134.475 6.16625L121.311 52.0407L122.277 52.316L121.317 52.0218L121.409 52.0488L121.317 52.0191C121.308 52.0461 120.681 54.0655 119.356 56.7896C118.034 59.5136 116.008 62.9396 113.242 65.7879C111.297 67.7938 109.326 69.7754 106.808 72.108C104.288 74.4433 101.216 77.1296 97.076 80.5367C82.9546 92.1511 78.3006 96.0198 78.3006 96.0225L78.9442 96.792V95.7904H76.3076L75.9101 90.3692L74.9095 90.4421L73.909 90.515L74.4417 97.7936H79.3066L79.5851 97.5614C79.5851 97.5614 79.6581 97.502 79.8123 97.3724C80.894 96.4761 85.9968 92.2429 98.3524 82.081C102.517 78.655 105.621 75.9417 108.174 73.5767C110.727 71.2117 112.731 69.1977 114.686 67.1809C117.69 64.0843 119.81 60.4558 121.195 57.5968C122.579 54.7377 123.226 52.6427 123.237 52.6076V52.5968L136.804 5.32393L133.491 3.06152L133.026 3.20731C128.68 4.57879 125.243 6.36064 122.539 8.27207C118.483 11.1392 116.087 14.2898 114.707 16.7331C113.328 19.1791 112.966 20.9205 112.95 20.9988L113.934 21.1985L112.963 20.9475C112.963 20.9475 111.806 25.3913 110.392 31.0824C108.977 36.7735 107.309 43.7092 106.278 48.7254C104.753 56.1605 102.168 61.3414 99.9857 64.6594C98.8932 66.317 97.9008 67.5076 97.1869 68.2798C96.8299 68.6658 96.5433 68.9439 96.3513 69.1248C96.2539 69.2139 96.1809 69.2814 96.1349 69.3219C96.1106 69.3435 96.0944 69.357 96.0835 69.3651L96.0727 69.3732L96.2891 69.6323L96.0754 69.3705L96.2918 69.6323L96.0781 69.3705L96.0538 69.3921L73.8765 90.0318L73.9117 90.5096L74.9122 90.4367L74.9149 90.4448Z" fill="black"/>
<path d="M76.3644 96.1171C76.3644 96.1171 101.249 75.4531 106.527 70.3748C111.711 65.3857 117.114 60.707 120.04 50.6989C122.731 40.0537 133.331 4.16577 133.331 4.16577L135.644 5.74513L123.802 50.3291C123.802 50.3291 121.541 57.424 117.544 63.0099C114.275 67.5779 110.892 70.5638 105.589 75.2236C92.3274 86.8785 79.7203 96.738 79.7203 96.738L76.3617 96.1198L76.3644 96.1171Z" fill="#877357"/>
<path d="M76.3644 96.117L76.7916 96.63C76.7916 96.63 83.014 91.4627 89.8963 85.6609C93.3387 82.7586 96.9462 79.6998 100.024 77.0459C101.562 75.7176 102.971 74.4919 104.158 73.439C105.348 72.3834 106.316 71.5033 106.99 70.8553C109.572 68.3689 112.249 65.9283 114.656 62.8289C117.066 59.7296 119.194 55.9688 120.681 50.8879V50.8771L120.686 50.8663C121.354 48.2178 122.523 43.9792 123.894 39.1223C125.952 31.8329 128.472 23.1424 130.476 16.2742C131.479 12.8401 132.352 9.86225 132.974 7.74023C133.285 6.67923 133.534 5.8342 133.707 5.25375C133.878 4.6733 133.972 4.36013 133.972 4.35743L133.331 4.16844L132.953 4.7192L134.876 6.03128L123.155 50.1589L123.802 50.3317L123.164 50.1292C123.134 50.2264 122.561 52.0029 121.509 54.43C120.457 56.8571 118.926 59.9348 117.001 62.6238C115.389 64.8754 113.756 66.7301 111.86 68.6118C109.964 70.4909 107.801 72.3969 105.151 74.7268C98.5281 80.5475 92.0678 85.92 87.2624 89.8374C84.8583 91.7974 82.8707 93.3903 81.4835 94.4972C80.7885 95.0506 80.2449 95.4799 79.8772 95.7715C79.6933 95.9173 79.5499 96.028 79.4553 96.1036C79.3606 96.1791 79.312 96.2169 79.312 96.2169L79.7257 96.7434L79.8474 96.0874L76.4888 95.4691L76.3671 96.1251L76.2454 96.7812L79.9015 97.4561L80.1395 97.2699C80.1395 97.2699 92.76 87.4022 106.038 75.7311C108.688 73.4012 110.867 71.4817 112.806 69.5622C114.743 67.6426 116.435 65.7204 118.093 63.404C120.132 60.5503 121.711 57.3457 122.79 54.8457C123.867 52.3458 124.44 50.5531 124.443 50.5396L124.448 50.5234L136.414 5.46703L132.953 3.10474L132.693 3.98486C132.693 3.98486 130.043 12.9589 127.055 23.2612C125.562 28.4123 123.983 33.8983 122.612 38.7632C121.238 43.6282 120.07 47.8668 119.394 50.5423L120.043 50.7043L119.399 50.518C117.958 55.4424 115.924 59.025 113.601 62.0163C111.281 65.005 108.664 67.3969 106.062 69.8996C105.416 70.5233 104.453 71.398 103.271 72.4455C99.1339 76.1145 92.2949 81.9082 86.4971 86.7813C83.5981 89.2191 80.9561 91.4249 79.0415 93.0231C78.0843 93.8223 77.3081 94.4675 76.77 94.9157C76.5023 95.1397 76.2914 95.3125 76.1507 95.4286C76.0101 95.5474 75.9344 95.6068 75.9344 95.6068L74.8365 96.5193L76.2427 96.7785L76.3644 96.1225V96.117Z" fill="black"/>
<path d="M125.165 44.0224L122.888 42.4403L107.649 47.2594L112.89 24.4707L129.783 17.724L132.336 19.1711L125.165 44.0224Z" fill="black"/>
<path d="M23.0778 89.0086L24.265 88.1663L34.1732 89.8428L33.7243 92.4913L29.2759 91.738L28.9351 93.7494L33.3836 94.4999L33.1023 96.1522L31.9179 96.9783L22.0096 95.3017L22.4612 92.6533L26.907 93.4065L27.4722 90.0723L26.6393 91.2926L22.802 90.6446L23.0778 89.0086Z" fill="#241F21"/>
<path d="M21.9204 99.6618L22.8723 98.5657L31.8719 97.9286L32.9698 98.8789L33.3511 104.238L32.3965 105.318L28.9243 105.566L28.735 102.885L31.1959 102.713L30.9552 99.3379L30.436 100.723L24.0757 101.174L24.219 103.207L26.6825 103.031L26.8718 105.709L23.3996 105.958L22.3017 105.021L21.9204 99.6618Z" fill="#241F21"/>
<path d="M31.7232 123.568L37.5616 119.721L35.6957 116.9L35.9201 118.36L30.5982 121.867L31.7232 123.568ZM39.8899 121.408L32.3614 126.368L30.9443 126.09L27.4153 120.75L36.6611 114.659L40.1901 119.999L39.8899 121.408Z" fill="#241F21"/>
<path d="M34.4193 130.177L34.3625 128.728L41.1825 121.36L43.1593 123.182L37.4426 129.354L36.0364 128.895L38.5243 131.19L44.6574 124.567L46.6342 126.39L39.1138 134.51L34.4193 130.177Z" fill="#241F21"/>
<path d="M44.2437 137.812L41.8911 136.511L47.2535 126.832L49.6089 128.134L47.4239 132.075L49.2114 133.061L51.3937 129.122L52.8621 129.932L53.2488 131.319L51.564 134.362L50.1795 134.77L50.5689 136.157L48.3839 140.099L46.0312 138.798L48.2135 134.859L45.2497 133.22L46.1286 134.411L44.2437 137.812Z" fill="#241F21"/>
<path d="M58.1975 138.528L59.7957 138.973L58.8573 142.321L57.6052 143.036L51.4315 141.311L54.4197 130.661L57.0103 131.387L54.7415 139.481L53.2785 139.71L56.5398 140.623L56.9319 139.224L58.1975 138.528Z" fill="#241F21"/>
<path d="M63.1164 134.77L64.4361 135.439L64.3631 137.286L66.402 137.367L66.4994 134.905L63.1164 134.77ZM61.4155 143.73L61.813 133.706L62.8812 132.72L69.2685 132.972L68.8304 144.022L66.1424 143.916L66.3209 139.416L64.2819 139.335L64.1035 143.833L61.4155 143.727V143.73Z" fill="#241F21"/>
<path d="M82.9546 136.133L81.5754 135.677L79.5446 131.654L80.0016 130.277L85.7129 127.405L87.0082 129.972L86.5593 131.33L85.0612 132.083L84.2283 130.434L81.2022 131.954L82.6814 131.9L83.5143 133.552L86.8351 131.881L88.2035 132.345L90.2316 136.365L89.7908 137.737L84.9827 140.153L83.6036 139.699L82.3137 137.145L83.8118 136.392L85.172 136.84L85.5506 137.588L87.3733 136.67L86.2618 134.47L82.9546 136.133Z" fill="#241F21"/>
<path d="M93.4199 135.412L86.1861 127.035L91.0429 122.858L92.4815 122.974L94.7531 125.609L92.7168 127.361L91.1051 125.493L88.5388 127.702L89.8665 127.183L91.17 128.692L92.3328 127.691L93.6741 129.249L92.5113 130.248L94.123 132.116L95.6698 130.785L94.0581 128.917L96.097 127.164L98.3686 129.797L98.2739 131.236L93.4199 135.412Z" fill="#241F21"/>
<path d="M101.268 128.125L92.2382 121.716L95.9538 116.5L97.3789 116.273L105.567 122.086L104.01 124.276L96.646 119.046L94.6828 121.803L95.9646 121.066L102.825 125.936L101.268 128.125Z" fill="#241F21"/>
<path d="M105.935 119.022L96.8407 114.748L97.9873 112.318L99.8343 113.188L99.261 114.403L100.394 113.45L108.012 117.029L107.303 118.531L105.935 119.022Z" fill="#241F21"/>
<path d="M109.478 113.385L108.215 114.106L99.5098 111.751L98.785 110.491L100.194 105.304L101.451 104.597L104.813 105.507L104.107 108.101L101.725 107.456L100.838 110.717L101.787 109.584L107.942 111.249L108.477 109.281L106.095 108.639L106.798 106.044L110.156 106.954L110.886 108.199L109.478 113.385Z" fill="#241F21"/>
<path d="M102.63 102.405L103.282 101.079L105.132 101.128L105.186 99.0895L102.717 99.0247L102.628 102.405H102.63ZM111.627 103.987L101.581 103.72L100.581 102.667L100.751 96.2844L111.825 96.5787L111.752 99.265L107.244 99.1435L107.19 101.182L111.698 101.301L111.625 103.984L111.627 103.987Z" fill="#241F21"/>
<path d="M74.0658 134.052L75.7208 136.255L78.3358 135.385L76.7484 137.637L78.3871 139.853L75.7505 139.041L74.1442 141.281L74.1037 138.528L71.4752 137.696L74.0847 136.805L74.0658 134.052Z" fill="#EB2126"/>
<path d="M32.3695 110.62L30.1602 112.267L31.0255 114.883L28.7729 113.296L26.55 114.924L27.3667 112.294L25.1276 110.688L27.8859 110.65L28.7242 108.028L29.6112 110.634L32.3695 110.62Z" fill="#EB2126"/>
</g>
<defs>
<clipPath id="clip0_3_645">
<rect width="140" height="154" fill="white"/>
</clipPath>
</defs>
</svg>
