<svg width="24" height="24" viewBox="0 0 24 24" fill="none" xmlns="http://www.w3.org/2000/svg">
<path d="M19.7 9.34998C19.7 9.07383 19.4761 8.84998 19.2 8.84998C18.9239 8.84998 18.7 9.07383 18.7 9.34998H19.7ZM3.40377 16.2551C3.2409 16.0321 2.92809 15.9833 2.70509 16.1462C2.4821 16.3091 2.43336 16.6219 2.59623 16.8449L3.40377 16.2551ZM2.91505 16.0572C2.64292 16.1042 2.46035 16.3628 2.50727 16.6349C2.55419 16.9071 2.81283 17.0896 3.08495 17.0427L2.91505 16.0572ZM5.7 15.65L5.85886 16.1241C6.02258 16.0692 6.1464 15.9338 6.1864 15.7658C6.2264 15.5978 6.1769 15.4211 6.05548 15.2984L5.7 15.65ZM4.8 4.84998L5.24039 4.61321C5.15864 4.46117 5.00426 4.36204 4.83199 4.351C4.65972 4.33996 4.49394 4.41855 4.39345 4.55891L4.8 4.84998ZM10.2 9.34998L10.0819 9.83583C10.2282 9.87137 10.3826 9.83916 10.5025 9.74812C10.6223 9.65709 10.6948 9.51692 10.6997 9.36651L10.2 9.34998ZM18.3 6.64998L17.8825 6.92516C17.9751 7.06551 18.1319 7.14998 18.3 7.14998V6.64998ZM21 6.64998L21.416 6.92733C21.5183 6.7739 21.5278 6.57663 21.4408 6.41405C21.3538 6.25147 21.1844 6.14998 21 6.14998V6.64998ZM18.784 9.07263C18.6308 9.30239 18.6929 9.61282 18.9227 9.766C19.1524 9.91918 19.4629 9.85709 19.616 9.62733L18.784 9.07263ZM18.7 9.34998C18.7 12.408 17.8267 14.9806 16.2376 16.7817C14.6553 18.5749 12.3229 19.65 9.3 19.65V20.65C12.5771 20.65 15.1947 19.475 16.9874 17.4433C18.7733 15.4193 19.7 12.592 19.7 9.34998H18.7ZM9.3 19.65C7.59639 19.65 6.43802 19.2084 5.56019 18.5872C4.66708 17.9552 4.03465 17.1188 3.40377 16.2551L2.59623 16.8449C3.22235 17.7021 3.93992 18.6657 4.98256 19.4035C6.04048 20.1521 7.40361 20.65 9.3 20.65V19.65ZM3.08495 17.0427C3.11037 17.0383 3.13085 17.0326 3.13091 17.0326C3.13669 17.031 3.14148 17.0296 3.14414 17.0288C3.14975 17.0272 3.15511 17.0255 3.15906 17.0243C3.16741 17.0217 3.17763 17.0184 3.18871 17.0149C3.21125 17.0076 3.24251 16.9974 3.28066 16.9848C3.3572 16.9596 3.4645 16.924 3.59186 16.8817C3.84672 16.797 4.18361 16.6845 4.51936 16.5723C4.85516 16.4601 5.19003 16.348 5.44094 16.264C5.56639 16.222 5.67087 16.187 5.74398 16.1626C5.78054 16.1503 5.80925 16.1407 5.82883 16.1341C5.83862 16.1308 5.84613 16.1283 5.85118 16.1266C5.85371 16.1258 5.85563 16.1251 5.85692 16.1247C5.85756 16.1245 5.85805 16.1243 5.85837 16.1242C5.85853 16.1242 5.85865 16.1241 5.85874 16.1241C5.85878 16.1241 5.85881 16.1241 5.85883 16.1241C5.85885 16.1241 5.85886 16.1241 5.7 15.65C5.54114 15.1759 5.54113 15.1759 5.54111 15.1759C5.54109 15.1759 5.54106 15.1759 5.54102 15.1759C5.54094 15.176 5.54082 15.176 5.54066 15.176C5.54033 15.1762 5.53985 15.1763 5.53921 15.1765C5.53793 15.177 5.53602 15.1776 5.53349 15.1784C5.52844 15.1801 5.52094 15.1827 5.51116 15.1859C5.4916 15.1925 5.4629 15.2021 5.42637 15.2143C5.3533 15.2388 5.24887 15.2738 5.12347 15.3158C4.87266 15.3997 4.53797 15.5117 4.20239 15.6239C3.86676 15.7361 3.53047 15.8483 3.27636 15.9328C3.14924 15.975 3.0431 16.0102 2.96803 16.0349C2.93036 16.0473 2.90127 16.0568 2.88149 16.0632C2.87141 16.0665 2.86499 16.0685 2.86153 16.0696C2.85958 16.0702 2.86025 16.07 2.86241 16.0693C2.86334 16.0691 2.86673 16.0681 2.87141 16.0668C2.87376 16.0662 2.87804 16.0651 2.88348 16.0638C2.88739 16.0628 2.8994 16.0599 2.91505 16.0572L3.08495 17.0427ZM6.05548 15.2984C3.22427 12.4361 3.01144 8.20704 5.20655 5.14104L4.39345 4.55891C1.92055 8.01291 2.16373 12.7859 5.34452 16.0016L6.05548 15.2984ZM4.35961 5.08674C5.51533 7.23636 7.68413 9.25308 10.0819 9.83583L10.3181 8.86412C8.26387 8.36487 6.29867 6.58159 5.24039 4.61321L4.35961 5.08674ZM10.6997 9.36651C10.7391 8.17584 11.1604 7.17476 11.8455 6.47468C12.5279 5.77734 13.4996 5.34998 14.7 5.34998V4.34998C13.2494 4.34998 12.0141 4.87261 11.1308 5.77527C10.2501 6.67519 9.74689 7.92411 9.70027 9.33345L10.6997 9.36651ZM14.7 5.34998C15.5379 5.34998 16.1703 5.50925 16.6666 5.77409C17.1618 6.03836 17.5523 6.42421 17.8825 6.92516L18.7175 6.3748C18.3147 5.76374 17.8077 5.2496 17.1374 4.89186C16.4682 4.5347 15.6671 4.34998 14.7 4.34998V5.34998ZM18.3 7.14998H21V6.14998H18.3V7.14998ZM20.584 6.37263L18.784 9.07263L19.616 9.62733L21.416 6.92733L20.584 6.37263Z" fill="white"/>
</svg>
