<svg width="24" height="24" viewBox="0 0 24 24" fill="none" xmlns="http://www.w3.org/2000/svg"><path clip-rule="evenodd" d="M7.5 3h9.004A4.496 4.496 0 0121 7.496v9.009A4.496 4.496 0 0116.504 21H7.496A4.496 4.496 0 013 16.504V7.5A4.5 4.5 0 017.5 3v0z" stroke="#fff" stroke-linecap="round" stroke-linejoin="round"/><path d="M8.12 11.1v5.4M11.719 16.5v-3.15a2.25 2.25 0 012.25-2.25v0a2.25 2.25 0 012.25 2.25v3.15M8.118 7.838a.225.225 0 10.003.45.225.225 0 00-.003-.45" stroke="#fff" stroke-linecap="round" stroke-linejoin="round"/></svg>