<svg width="140" height="154" viewBox="0 0 140 154" fill="none" xmlns="http://www.w3.org/2000/svg"><g clip-path="url(#clip0_3_645)"><path d="M66.513 154c-4.151 0-8.332-.489-12.423-1.455a53.654 53.654 0 01-19.87-9.258c-5.71-4.257-10.482-9.541-14.184-15.704-7.564-12.589-9.85-27.459-6.434-41.876a56.868 56.868 0 015.422-14.171c-.646-.859-1.033-1.947-1.073-3.18-.052-1.566.332-2.903.71-4.002.615-1.773 1.637-3.49 2.719-5.31.119-.197.238-.4.357-.602a68.48 68.48 0 01-.574-1.515c-2.285-.14-5.324-.523-8.35-1.49-1.872-.6-4.316-1.474-6.601-2.945-2.085-1.342-3.61-2.862-4.66-4.652C-.076 45.067-.43 42.062.53 39.15c.587-1.785 1.55-4.158 3.791-6.712 2.166-2.514 3.654-3.634 6.16-5.195 3.573-2.219 7.65-4.114 12.47-5.788a87.091 87.091 0 0112.35-3.288c1.741-.33 3.567-.63 5.581-.91 1.32-.186 2.629-.308 3.892-.427l.581-.054c2.36-.224 7.169-.558 9.987-.558h.319c2.572.024 8.223.183 11.266.61 4.256.54 6.657 1.339 9.15 2.456 1.775.797 3.862 1.81 5.896 3.294 1.685 1.231 2.937 2.592 3.826 4.16 1.204 2.12 1.615 4.436 1.223 6.801l1.373 2.244c.958 1.541 1.485 2.991 1.704 4.322l4.278-.594c1.344 3.272 1.615 6.439.803 9.411-.11.408-.238.794-.378 1.161a54.072 54.072 0 016.885 4.82 50.172 50.172 0 001.863-6.731c.711-3.467 1.801-8.215 3.24-14.114l2.844-12.368S114.088 6.266 132.19.553l1.761-.556L140 4.128l-7.215 27.168-5.335 20.094-.027.09c-.1.312-2.494 7.731-6.785 13.733-1.596 2.23-3.243 4.171-5.373 6.304 6.422 12.033 8.21 25.904 5.016 39.379-3.416 14.416-12.131 26.692-24.544 34.562-6.076 3.853-12.712 6.442-19.727 7.697-3.14.562-6.333.845-9.494.845" fill="#fff"/><path d="M132.115 19.044l3.531-13.299-2.312-1.577c-17.015 5.37-19.395 17.039-19.395 17.039s-.313 1.21-.816 3.172l-.233.092-2.404 10.459c-1.179 4.827-2.401 10.03-3.215 14.003-1.049 5.119-2.596 9.201-4.184 12.362a50.461 50.461 0 00-5.695-4.948 49.886 49.886 0 00-7.864-4.809c1.171-1.258 3.7-4.848 1.342-10.588 0 0-.655 5.78-5.79 4.01 0 0 2.988-2.517.095-7.18 0 0-3.851 7.608-8.56 1.982.553-.165 1.477-.273 3.157-1.293 1.438-.875 2.498-2.427 3.096-4.012.755-2 .709-3.958-.365-5.845-.687-1.207-1.655-2.157-2.766-2.97-1.647-1.201-3.36-2.065-5.209-2.894-2.225-.999-4.297-1.679-8.099-2.157-2.693-.38-8.083-.55-10.8-.578-2.537-.024-7.383.3-9.906.54-1.436.138-2.877.262-4.305.462-1.807.254-3.61.543-5.4.88a83.267 83.267 0 00-11.81 3.143c-4.083 1.42-8.031 3.14-11.712 5.426-2.355 1.463-3.483 2.352-5.303 4.463-1.806 2.052-2.558 3.912-3.05 5.407-.636 1.936-.352 3.818.69 5.594.84 1.434 2.06 2.495 3.442 3.383 1.768 1.14 3.71 1.885 5.703 2.525 4.419 1.412 8.867 1.395 10.036 1.38.202-.004.308-.006.291 0-.705.237 1.726 5.396 1.588 5.639-1.417 2.524-2.945 4.754-3.634 6.741-.295.853-.536 1.72-.506 2.635.032.996.597 1.555 1.593 1.569.432.005.849-.065 1.26-.17-3.367 5.1-5.85 10.818-7.304 16.952-3.186 13.45-1.058 27.321 5.995 39.057 3.448 5.737 7.888 10.656 13.202 14.617a49.879 49.879 0 0018.47 8.604 50.237 50.237 0 0011.55 1.352 50.25 50.25 0 008.826-.785c6.528-1.167 12.704-3.578 18.362-7.166 11.571-7.338 19.697-18.787 22.883-32.237 3.185-13.45 1.057-27.322-5.996-39.058-.027-.046-.056-.09-.083-.135 2.728-2.535 4.908-4.843 7.041-7.821 3.994-5.583 6.258-12.681 6.258-12.681l5.322-20.043 3.207-11.118-.222-.127-.002.003z" fill="#fff"/><path d="M73.985 68.285c-15.793-3.728-31.786 6.51-35.65 22.824-3.864 16.315 5.838 32.621 21.631 36.35 15.793 3.728 31.783-6.51 35.65-22.824 3.864-16.315-5.839-32.622-21.631-36.35zm-18.64 78.679a48.36 48.36 0 01-17.916-8.345c-5.154-3.844-9.465-8.617-12.813-14.187-6.85-11.398-8.915-24.87-5.819-37.937 3.096-13.067 10.99-24.187 22.226-31.315a49.362 49.362 0 0117.82-6.954 48.427 48.427 0 0119.763.55 48.374 48.374 0 0117.916 8.346c5.154 3.844 9.464 8.617 12.812 14.187 6.85 11.398 8.916 24.87 5.822 37.937-3.096 13.067-10.99 24.187-22.226 31.315a49.356 49.356 0 01-17.82 6.954 48.42 48.42 0 01-19.763-.551" fill="#FCDE00"/><path d="M98.544 98.301c0 17.071-13.948 30.907-31.152 30.907s-31.153-13.836-31.153-30.907c0-17.07 13.949-30.907 31.153-30.907s31.152 13.837 31.152 30.907z" fill="#000"/><path d="M104.139 68.571l-1.354 4.725-2.989 1.412-2.022 2.31-2.434 2.946L94 81.698l.23.907a30.535 30.535 0 012.594 5.548l.419.305c4.727-3.745 14.794-11.882 14.794-11.882-2.46-3.474-7.899-8.005-7.899-8.005z" fill="#BFA80F"/><path d="M94.234 82.605l1.138 4.49 1.455 1.058a30.622 30.622 0 00-2.593-5.548zM40.885 82.057a31.313 31.313 0 00-1.958 3.666c.39.375.812.802 1.274 1.296.933.993 1.563 1.382 1.977 1.382 1.45 0 .265-4.738.265-4.738l-1.558-1.606z" fill="#381C0D"/><path d="M88.393 52.894l-.42 4.895-2.66 1.957-1.542 2.656-1.82 3.356-.981 1.958 1.73 3.66a31.51 31.51 0 013.194 2.055c5.124-3.61 6.936-10.75 6.936-10.75 2.102 1.816 1.028 6.433 1.028 6.433 4.297-3.915 3.83-9.884 3.83-9.884-3.084-2.937-9.293-6.339-9.293-6.339" fill="#BFA80F"/><path d="M82.7 71.38l.65 1.373 2.1.98c.15-.097.298-.194.444-.297A31.511 31.511 0 0082.7 71.38z" fill="#381C0D"/><path d="M67.36 69.446c-5.198 0-10.33 1.507-14.895 4.428-6.41 4.103-10.92 10.499-12.7 18.007-3.672 15.508 5.528 31.001 20.512 34.541 14.984 3.539 30.163-6.199 33.838-21.706 1.78-7.508.616-15.243-3.272-21.78-3.88-6.52-10.003-11.05-17.24-12.758a27.136 27.136 0 00-6.24-.73m-.869 60.71c-2.282 0-4.597-.262-6.907-.807-16.6-3.92-26.806-21.036-22.75-38.158 1.96-8.272 6.933-15.322 14.005-19.849 7.088-4.538 15.42-5.99 23.456-4.093 8.04 1.898 14.836 6.922 19.135 14.15 4.292 7.21 5.574 15.737 3.616 24.009-3.491 14.738-16.43 24.748-30.555 24.748zm-10.836 15.775a46.973 46.973 0 0019.151.535c6.142-1.099 11.953-3.367 17.278-6.744 10.903-6.917 18.564-17.711 21.569-30.392 3.004-12.683.997-25.758-5.647-36.816-3.245-5.4-7.426-10.03-12.42-13.756a46.929 46.929 0 00-17.361-8.088 46.92 46.92 0 00-19.152-.535c-6.14 1.1-11.952 3.367-17.277 6.744C30.896 63.795 23.235 74.59 20.23 87.273c-3.004 12.683-.998 25.758 5.647 36.816 3.245 5.4 7.426 10.03 12.42 13.756a46.943 46.943 0 0017.361 8.088zm10.858 4.279c-3.867 0-7.726-.451-11.55-1.352a49.881 49.881 0 01-18.47-8.605c-5.314-3.963-9.754-8.879-13.202-14.616-7.052-11.736-9.18-25.607-5.995-39.058 3.186-13.45 11.314-24.9 22.883-32.238 5.657-3.587 11.834-5.998 18.362-7.165a49.944 49.944 0 0120.376.567 49.9 49.9 0 0118.472 8.605c5.314 3.963 9.755 8.882 13.202 14.619 7.053 11.736 9.181 25.607 5.996 39.057-3.186 13.45-11.315 24.9-22.883 32.238-5.658 3.588-11.834 5.999-18.362 7.165a50.156 50.156 0 01-8.827.786" fill="#000"/><path d="M74.33 46.452l-8.682-4.757-10.368 7.832L43.513 58.2l-7.844 4.895-1.26 7.273 1.54 5.734 9.106 9.649 4.903 8.812 1.679 8.669.281 7.554 1.542 4.473 8.686.141 8.964-1.817 4.903-3.359 6.863-10.067 3.364-9.792-.14-10.348-3.502-11.048-1.823-2.66 2.66-1.535 2.943-5.734.982-9.93-5.044-4.336-7.985 1.68z" fill="#FAB057"/><path d="M33.681 69.643s6.66-.497 10.087-4.165c0 0-.125-7.895 7.534-3.977 0 0 9.213-5.78 15.005-3.418 0 0 3.191 1.228 4.795 3.917 3.112 5.222 1.93 22.314 1.93 22.314l3.86 1.865 2.801.994 2.553-1.804.622-.62s-1.371-14.11-7.347-22.5l-1.12-7.274-3.423-3.728-3.113-7.149-10.149 3.79-6.663 4.787-7.783 4.911-4.919 3.17-4.007 2.543-.663 6.344zM79.566 54.665c.062-.187-.435-7.273 3.237-4.228 0 0 1.371 3.437-.498 5.718-1.119 1.369-2.739-1.493-2.739-1.493" fill="#B26929"/><path d="M46.237 69.362c-.898 0-1.993-.267-1.993-.267l-.146-.378c-1.469-3.793-.639-11.023-.628-11.328.014-.421-.205-.694.26-.68.462.013.825.367.811.788 0 .067-.21 6.66.987 10.294.968.114 3.402.135 5.276-2.111.43-.583 1.504-1.893 2.564-1.95.413-.02.79.128 1.06.42a.721.721 0 01-.098 1.076.903.903 0 01-.949.084c-.297.186-.714-.413-1.087.1l-.746 1.11c-1.934 2.33-3.754 2.834-5.311 2.834" fill="#000"/><path d="M45.974 69.168l3.237-1.056 1.745-1.368 1.181-1.68 2.118-.186s-1.369 4.6-3.548 6.029c-2.18 1.428-4.733-1.742-4.733-1.742M41.932 68.736s-3.548 3.17-.468 10.302c0 0-7.331-6.339.468-10.302zM70.72 80.423c-.308-3.445-.978-9.462-1.476-12.716-1.168-7.645-8.6-5.623-8.856-5.593l2.304.218-6.098.948-1.152-1.229s2.431-1.738 5.892-1.925c3.07-.164 8.8-.777 9.579 8.202.303 3.488.684 11.466.995 14.949l-1.185-2.854h-.002zM82.833 50.459s-1.214-2.239-2.802-.886c-1.587 1.353-1.26 4.99-1.073 7.038 0 0 3.502-1.306 1.26 4.477 0 0 6.536-5.875.514-7.552 0 0-1.355-4.055 2.1-3.077zM76.732 83.512s-.343-8.345-2.242-17.654c0 0 4.922 11.617 4.049 17.802l.278 5.073-2.801-.745.716-4.476z" fill="#000"/><path d="M63.127 41.695s9.714 11.56 4.297 16.504c0 0 3.083.186 4.576-1.866 0 0 2.615 3.915.281 8.3 0 0 2.707.466 4.016-4.01v-6.992l2.055-5.689 1.869-1.398 2.896.28 1.682 2.425.84 3.637v3.728l-.932 4.104s4.202 1.77 3.921 6.433c0 0 4.11-7.178.373-15.105 0 0 4.857-3.823 1.869-11.096 0 0-.655 5.78-5.79 4.01 0 0 2.988-2.517.095-7.18 0 0-4.39 8.672-9.527.654l-2.334-.186-.654 1.212h-1.215l-1.4-1.118-4.297.931-2.615 2.425-.006-.003zM49.244 89.122s4.297-5.594 14.943-4.6l2.242 3.48s-10.46-1.618-17.183 1.117" fill="#000"/><path d="M34.344 63.299s6.165 5.37 8.823-3.137c2.661-8.51-3.566.059-3.566.059l-2.978 1.326-2.282 1.752h.003z" fill="#fff"/><path d="M41.007 60.07c.36 1.26-.279 2.546-1.425 2.872-1.147.327-2.37-.429-2.732-1.69-.36-1.26.279-2.546 1.425-2.872 1.147-.327 2.37.429 2.732 1.69z" fill="#000"/><path d="M39.033 60.67c.184.647-.003 1.268-.422 1.387-.417.119-.906-.308-1.09-.956-.184-.648.003-1.269.42-1.388.416-.118.905.308 1.089.956" fill="#fff"/><path d="M35.485 62.829s1.557 2.61 6.536.497c0 0-2.802 3.917-7.037.931l-.497-2.052.995.621.003.003z" fill="#000"/><path d="M47.63 55.656s4.01 3.593 7.033.999c3.023-2.595 4.4-3.337 5.79-8.888 1.39-5.55-4.24-.076-4.24-.076l-4.776 3.137-2.477 2.112-.425.845-.906 1.87z" fill="#fff"/><path d="M49.306 55.928s1.93 3.294 8.84-2.113c0 0-4.172 7.956-10.709 2.92l1.869-.807z" fill="#000"/><path d="M55.263 52.497c.36 1.26-.278 2.546-1.425 2.873-1.146.326-2.369-.43-2.731-1.69-.36-1.261.279-2.547 1.425-2.873 1.147-.327 2.369.43 2.731 1.69z" fill="#000"/><path d="M53.29 53.094c.183.648-.003 1.268-.422 1.387-.417.12-.906-.308-1.09-.955-.184-.648.002-1.27.419-1.388.416-.119.906.308 1.09.956" fill="#fff"/><path d="M33.38 54.452l2.41 9.983-.127.303c-.005.016-.765 1.876-.873 4.33-.14 3.189.835 5.85 2.896 7.908 5.698 5.688 11.912 12.589 13.543 22.55.57 3.492.69 6.402.787 8.743.18 4.392.332 5.936 2.114 6.39 3.935 1.004 14.081.097 18.221-2.832 4.176-2.954 11.634-15.246 11.904-22.621.295-8.038-1.37-16.898-3.959-21.067l-.386-.623.243-2.33c-.87-.186 4.732.87 5.01-11.56.074-3.203-1.51-5.794-2.895-6.434-.877-.408-2.226-.105-2.615.186-1.869 1.399-2.37 5.13-2.453 7.036-.027.634-.003 1.344.022 2.097.062 1.769.124 3.6-.492 4.906l-1.055 2.24-.803-2.343c-.063-.18-6.033-17.505-11.126-21.895L33.373 54.446l.008.006zm24.826 62.594c-1.82 0-3.421-.149-4.573-.443-3.318-.848-3.445-3.953-3.621-8.251-.095-2.286-.211-5.132-.763-8.501-1.533-9.374-8.661-15.859-14.137-21.326-5.339-5.329-2.007-12.63-1.423-14.238l-2.636-10.918 32.915-16.285.49.348c4.075 2.897 8.478 13.113 10.76 18.998-.025-.707-.046-1.433-.016-2.094.102-2.35 1.892-6.707 3.585-7.943.96-.705 2.634-1.088 4.203-.362 2.66 1.234 3.453 4.827 3.65 7.627.487 6.973-3.201 12.254-4.478 13.966 4.016 6.06 4.9 14.827 4.654 21.544-.132 3.61-2.398 8.769-5.26 13.947-2.614 4.73-5.695 8.698-8.04 10.356-3.41 2.411-10.213 3.58-15.308 3.58" fill="#000"/><path d="M33.646 62.813c-1.003.793 1.368-.683 9.651-2.487 0 0 .47-4.15 5.014-3.218l7.499-6.603s3.05-2.922 3.115 1.725c0 0 3.296-3.96 2.488-4.709 0 0 .186-.62-.311 2.921 0 0 5.744-4.057 6.885-5.912.465-.756.651-1.212 1.433-.791.817.437 1.888 1.09 3.294 2.054l.808-2.734-3.548-4.01-4.546-1.77-8.715 4.6L41.83 49.4l-7.471 3.418-3.921 1.617 2.366 5.035.838 3.343h.003z" fill="#000"/><path d="M7.001 36.709c.092-.281 13.075-9.417 13.075-9.417l17.556-4.94 15.035-1.772 12.702.654 7.937 2.516 4.016 2.516 2.055 2.238.281 3.356-2.334 5.502-1.4 1.771-2.47.038-.892.707-1.328.116-1.47-.869-2.058.005-7.472 3.542-8.405 6.62-6.258 5.689-7.377 5.688-8.404 5.502-4.762 1.585-2.242-.745.56-1.771 3.726-5.867 1.136-1.773-2.058.183-1.387-5.653-.95.618-5.79-.372-8.217-3.265-3.83-3.914L5.136 41l1.868-4.29L7 36.71z" fill="#665E26"/><path d="M41.996 74.47l5.977-1.428 6.35-3.045s5.478-3.853 5.727-4.042c.249-.186 2.74-1.99 2.74-1.99l3.112 4.911 2.428 6.277.746 6.091-8.715-1.118-6.85.373-3.424 1.928s-1.993 3.17-1.993 2.983c0-.186-1.184-4.352-1.184-4.352l-2.304-3.79-2.615-2.798h.005z" fill="#fff"/><path d="M43.481 75.05c1.587 1.267 2.875 3.265 3.84 5.954.452 1.263.741 2.427.911 3.253 1.01-1.7 2.377-3.067 4.776-3.858 4.67-1.539 14.587-.278 14.587-.278-.303-8.197-4.335-13.394-5.463-14.692-1.238.923-5.387 3.971-9.146 6.16-3.355 1.955-7.498 3.024-9.502 3.462m3.97 12.376l-.2-1.577c0-.02-.13-2.07-1.085-4.3-1.498-3.502-5.752-7.252-5.752-7.252l1.393-.238c.06-.01 6.236-1.112 10.584-3.647 4.405-2.565 10.925-7.64 10.925-7.64s6.544 9.443 6.734 19.659c0 0-9.016-1.604-12.572-1.253-3.01.294-6.958.591-9.08 4.617l-.945 1.63h-.002z" fill="#000"/><path d="M46.099 79.692l-.184-1.156c.095-.013 9.489-1.55 19.846-7.513l.584 1.012c-10.557 6.075-20.154 7.638-20.249 7.654" fill="#000"/><path d="M23.143 47.043l3.272-3.172.963-.864 2.985 3.172s4.43-2.113 4.43-2.402c0-.29-.771-5.095-.771-5.095l9.243-3.844 13.094-1.922 2.117 1.441-1.83 3.75-7.126 2.02-8.954 3.555-7.126 4.036-4.91 3.653-2.697 1.922-2.696-6.247.006-.003z" fill="#47421A"/><path d="M25.644 41.085l4.719 5.094 4.43-2.402-.647-6.094-5.998-.923-2.504 4.325zM25.163 53.005l9.532-6.345 9.34-4.903 10.88-3.364 3.464-1.441 5.102-1.536 2.215-.098 3.564.962.533 2.72-7.036 2.115-6.041.767-17.11 9.97-8.57 2.786-4.984 3.28-.89-4.913zM70.913 35.831l-1.198 1.304.762 2.797 1.555.621 1.033-.923.244-1.385-.839-1.482-1.557-.932z" fill="#FCDE00"/><path d="M26.896 58.02c.125-.248 2.615-2.051 2.615-2.051l15.068-8.764 10.647-4.041 2.49-.248 1.869.496-2.366 1.555-4.546 4.104-6.474 6.09-6.474 4.725-7.97 5.097-4.42 2.176-3.175 1.183-1.058-1.741 1.306-3.294 1.558-2.735.933-2.549-.003-.002z" fill="#666"/><path d="M69.325 37.624a34.988 34.988 0 00-3.686.016l.52 1.347 3.307-.475-.143-.888m2.588 2.087c.63-.01 1.16-.613 1.049-1.142-.195-.902-.714-1.512-1.617-1.785-.403-.121-.771-.04-1.044.23-.279.275-.406.658-.244 1.053.12.416.284.672.509.942.351.426.857.618 1.347.702zm-8.543-3.008c-.72.052-3.094.31-3.55.427-.339.086-.406.41-.15.642.436.395.777.846.804 1.447.021.492-.014.986-.046 1.477-.008.133.013.303.132.332.136.035.284 0 .414-.027.89-.183 1.777-.375 2.658-.588.511-.124 1.017-.281 1.517-.443.379-.105.452-.516.379-.742-.238-.73-.525-1.44-.928-2.098-.24-.562-1.225-.419-1.225-.427m-34.876.783c-.024.027-1.969 3.607-1.898 3.683 1.317 1.423 3.364 3.739 4.078 4.352 1.257-.65 3.98-1.987 3.959-2.095-.32-1.763-1.198-5.162-1.315-5.178-1.076-.152-4.164-.667-4.824-.762zm1.888 18.75c-.447.319-.898.635-1.342.959-.273.202-.532.418-.792.634a.924.924 0 00-.23.24 48.825 48.825 0 00-.903 1.536c-.914 1.631-1.774 3.289-2.358 5.07a10.151 10.151 0 00-.409 1.645c-.083.567.141.996.847.864.262-.049.522-.111.779-.187 1.484-.453 2.858-1.155 4.191-1.93a123.017 123.017 0 0012.429-8.288c2.858-2.165 5.627-4.43 8.167-6.971a57.061 57.061 0 016.092-5.265c.365-.272.733-.542 1.1-.812a.14.14 0 00-.116.021c-.805.513-1.625 1.007-2.412 1.547-2.239 1.54-4.307 3.297-6.379 5.049-2.055 1.741-4.148 3.431-6.385 4.94-5.08 3.427-10.346 6.55-15.67 9.58-.03.018-.065.026-.1.04l-.038-.038c1.046-2.322 2.717-4.212 4.302-6.166a12.65 12.65 0 00-1.947 1.428c-.603.534-1.19 1.09-1.804 1.655.755-1.995 1.812-3.793 2.983-5.548m-2.78.294l.82-.586c4.864-3.48 9.951-6.593 15.308-9.263 5.079-2.53 10.325-4.63 15.793-6.152.24-.068.327-.168.349-.41.05-.616-.036-1.183-.433-1.68-.076-.095-.152-.143-.287-.116-.616.121-1.236.216-1.852.343a63.245 63.245 0 00-10.173 2.972c-6.418 2.468-12.37 5.775-17.897 9.852-.892.658-1.75 1.363-2.62 2.049-.07.056-.146.097-.095.227.365.91.72 1.822 1.087 2.761m-.914-4.824c.057-.043 5.011-3.89 9.93-6.496 4.716-2.5 7.645-3.904 13.2-5.375.307-.08 4.248-1.096 5.93-2.424.451-.357.795-.84.957-1.307.187-.53-.003-1.058-.53-1.253a4.989 4.989 0 00-1.203-.275c-5.793-.788-10.604.999-13.67 2.081-2.17.767-4.287 1.642-6.328 2.7-.092.049-.19.068-.16.227.265 1.428.52 2.859.779 4.287.027.149.008.235-.146.313-1.025.516-2.044 1.045-3.067 1.569-.64.33-1.279.659-1.925.99-.85-.917-1.69-1.827-2.537-2.742-1.197.999-2.314 2.04-3.272 3.245-.038.046-.032.162-.002.224.395.837.8 1.671 1.2 2.508.382.791.452.913.841 1.725m52.219-22.867c-.04-.067-.081-.135-.125-.202-.738-1.18-1.798-2.02-2.953-2.749-1.95-1.23-4.08-2.043-6.292-2.659-4.024-1.123-8.145-1.574-12.307-1.703-3.045-.095-6.082.053-9.116.337a80.49 80.49 0 00-6.58.864c-1.782.316-3.56.667-5.327 1.064-4.391.985-8.678 2.313-12.837 4.047-2.931 1.22-5.765 2.632-8.42 4.379-1.742 1.144-3.405 2.389-4.822 3.93-1.152 1.256-2.115 2.638-2.677 4.263-.236.678-.441 1.372-.39 2.095.122 1.734.928 3.154 2.12 4.377.152.156.325.289.495.437.02-.038.03-.049.03-.06a.893.893 0 00-.016-.118 7.163 7.163 0 01.202-3.21c.452-1.552 1.269-2.905 2.27-4.158 1.424-1.784 3.133-3.264 4.975-4.6 2.366-1.717 4.905-3.145 7.545-4.395 4.345-2.063 8.875-3.618 13.529-4.809a84.743 84.743 0 0111.728-2.143c2.174-.24 4.357-.4 6.542-.454a61.202 61.202 0 017.674.262c2.294.232 4.562.597 6.785 1.215 2.913.813 5.674 1.928 7.961 3.993m-27.199 1.914l.008-.062c.03 0 .063-.008.092-.008.917-.024 1.834-.04 2.748-.076 1.798-.07 3.588-.224 5.36-.564.852-.165 1.695-.324 2.49-.686.444-.202.939-.397 1.174-.996.13-.302-.038-.672-.249-.923-.184-.216-.338-.41-.811-.68-.49-.252-4.04-2.892-14.092-1.89-1.057.105-2.106.291-3.153.472a84.725 84.725 0 00-8.14 1.817c-3.57.985-7.063 2.187-10.451 3.685-3.373 1.493-6.607 3.23-9.565 5.446-1.523 1.142-2.967 2.373-4.167 3.858-.96 1.187-1.745 2.478-2.207 3.947-.398 1.26-.52 2.518.003 3.782a1 1 0 00.416.508c1.606.998 3.34 1.714 5.135 2.286 2.772.88 5.471 1.172 8.356 1.482.344.038-2.758-4.49-2.739-4.692.019-.208 1.377-2.68 4.803-5.073.056-.054.121.58.184.521a336.91 336.91 0 00-1.51-1.633c-.08-.086-.094-.146-.037-.257.797-1.525 1.59-3.05 2.377-4.581.065-.127.14-.151.268-.127.221.04.448.07.673.103 1.844.267 3.688.534 5.535.79.165.022.209.093.23.233.052.327.114.653.176.993.046-.021-.354-.534-.327-.55 1.244-.807 4.143-1.914 6.038-2.643 4.254-1.634 8.562-2.517 12.983-3.224.774-.173 1.55-.332 2.28-.489-1.268-.25-2.575-.51-3.88-.769zm24.422 9.268c-.205-.208-.354-.259-.579-.137-.124.067-.332.032-.489-.011-.457-.119-.909-.265-1.363-.4-.07-.021-.138-.046-.203-.067-.103.146-.184.297-.294.416-.544.575-1.255.94-1.97.728-.47-.14-1.367-.178-1.524-.869-.076-.34.219-.337.097-.316-2.12.392-4.105 1.161-6.022 2.122-2.905 1.458-5.555 3.3-8.08 5.332-1.829 1.474-3.527 3.089-5.212 4.725-2.571 2.503-6.909 6.263-9.789 8.402a124.718 124.718 0 01-11.528 7.624c-1.311.764-2.658 1.455-4.11 1.925-.56.18-1.13.313-1.728.307-.995-.013-1.558-.57-1.593-1.568-.03-.918.208-1.785.506-2.638.69-1.987 2.217-4.217 3.634-6.741.138-.246-2.293-5.402-1.587-5.64.097-.032-5.136.28-10.328-1.38-1.995-.637-3.934-1.385-5.703-2.524-1.382-.888-2.599-1.949-3.442-3.383-1.041-1.773-1.328-3.658-.69-5.593.492-1.496 1.247-3.356 3.05-5.408 1.82-2.114 2.948-3 5.303-4.463 3.68-2.287 7.626-4.006 11.712-5.426a82.74 82.74 0 0111.81-3.143c1.793-.34 3.594-.626 5.4-.88 1.428-.2 2.87-.327 4.305-.462 2.526-.24 7.372-.564 9.908-.54 2.718.027 8.108.197 10.801.578 3.805.48 5.874 1.161 8.1 2.157 1.849.83 3.563 1.693 5.207 2.894 1.112.813 2.08 1.76 2.767 2.97 1.07 1.887 1.117 3.845.365 5.845-.598 1.588-1.658 3.137-3.096 4.012-2.304 1.401-3.189 1.083-3.635 1.552z" fill="#000"/><path d="M30.382 43.925l-.511-2.084-2.12-.356 1.803-.93-.51-2.083 1.625 1.506 1.8-.929-.797 1.863L33.3 42.42l-2.12-.357-.798 1.863z" fill="#000"/><path d="M45.76 91.773l-7.376 6.806s-1.028 7.973 5.322 16.69l6.63-5.407-.468-6.339s.063-3.537-1.306-6.712c-1.37-3.178-2.801-5.035-2.801-5.035" fill="#47421A"/><path d="M45.76 91.773l-.51-.55-7.578 6.992-.035.27c-.002.027-.067.537-.067 1.42 0 1.363.151 3.628.92 6.396.767 2.767 2.152 6.042 4.607 9.411l.468.643 7.55-6.159-.495-6.73-.752.054.752.013v-.086c0-.286-.013-1.25-.189-2.527-.176-1.277-.514-2.867-1.18-4.411-1.403-3.254-2.868-5.16-2.895-5.195l-.503-.653-.606.559.511.55-.598.46c.017.021 1.39 1.822 2.707 4.873.59 1.366.909 2.834 1.071 4.022.165 1.185.176 2.087.176 2.322V103.506l.206.003h-.206v.03l.44 5.985-6.327 5.159.476.584.608-.443c-2.342-3.216-3.648-6.315-4.375-8.931-.725-2.613-.865-4.741-.865-5.993 0-.406.013-.719.03-.93.007-.105.013-.183.018-.231 0-.025.006-.044.006-.054v-.011l-.747-.097.511.553 7.377-6.806-.51-.553.005.002z" fill="#000"/><path d="M50.125 109.103l-7.004 5.594s1.136 2.953 4.36 5.189l3.485-2.813.282-2.379-1.12-5.594-.003.003z" fill="#754D24"/><path d="M50.125 109.103l-.627-.783-7.577 6.053.262.683c.022.054.335.858 1.076 1.957a14.183 14.183 0 003.646 3.696l.619.429 4.392-3.542.346-2.94-1.477-7.365-1.287 1.029.627.783-.984.197 1.09 5.437-.214 1.815-3.17 2.556.63.78.574-.823a12.162 12.162 0 01-3.129-3.172c-.316-.47-.538-.872-.678-1.15-.07-.141-.12-.249-.152-.319l-.032-.075-.006-.014-.549.213.55-.21-.936.359.627.783 7.004-5.594-.627-.783h.002z" fill="#000"/><path d="M80.29 87.1s-2.79-1.415-4.699-1.866c-1.712-.405-7.099 1.523-7.658 3.853 0 0-5.823.529-7.037 4.91 0 0-5.2 1.37-6.038 5.47l-2.77 1.804s-1.681 1.304-1.587 4.103c.095 2.797-.186 8.391 1.306 11.283 0 0 2.148 2.238 6.445 3.542 4.297 1.304 9.15 1.865 9.15 1.865l3.954 2.268s15.284-4.414 20.047-12.057l-3.548-3.169 2.801-10.07s-1.073-3.683-3.502-8.346l-5.322 3.497-2.382-1.585.84-5.502z" fill="#ED2124"/><path d="M80.29 87.1l.493-.97s-.725-.367-1.69-.788a29.12 29.12 0 00-1.585-.642 14.956 14.956 0 00-1.668-.521 3.617 3.617 0 00-.795-.084c-.341 0-.692.035-1.063.094-.646.106-1.347.292-2.055.54-1.063.378-2.145.894-3.061 1.545a6.552 6.552 0 00-1.223 1.104c-.173.208-.33.432-.462.672-.133.24-.238.502-.306.78l1.058.254-.098-1.08a9.74 9.74 0 00-1.052.17c-.924.195-2.33.586-3.69 1.418a7.867 7.867 0 00-1.924 1.625 6.53 6.53 0 00-1.316 2.49l1.049.288-.276-1.05c-.062.019-1.444.38-2.994 1.32-.773.472-1.593 1.09-2.296 1.909-.703.815-1.287 1.844-1.538 3.075l1.065.218-.595-.91-2.81 1.828-.035.027c-.073.057-.565.451-1.052 1.234-.243.392-.484.88-.662 1.466a6.98 6.98 0 00-.292 2.298c.021.669.021 1.541.032 2.51.017 1.456.054 3.132.236 4.752.092.81.219 1.609.403 2.362.183.756.424 1.469.757 2.117l.073.14.108.114c.043.046.638.656 1.787 1.431 1.15.774 2.859 1.711 5.125 2.4 2.215.672 4.538 1.144 6.317 1.452 1.78.308 3.012.451 3.026.451l.124-1.08-.54.942 4.353 2.5.444-.129c.032-.011 3.897-1.126 8.396-3.221 2.25-1.05 4.66-2.344 6.837-3.885a25.392 25.392 0 003.045-2.505c.924-.902 1.738-1.871 2.393-2.916l.481-.775-3.726-3.329 2.704-9.716-.087-.297c-.013-.046-1.106-3.79-3.58-8.542l-.557-1.067-5.727 3.761-1.207-.802.855-5.594-.7-.356-.493.97-1.076-.166-.944 6.186 3.556 2.367 5.925-3.89-.597-.907-.966.5a55.428 55.428 0 012.61 5.804c.278.737.484 1.328.62 1.73.067.203.115.357.148.462l.035.116.008.027v.005l1.044-.302-1.05-.291-2.982 10.718 4.053 3.62.725-.81-.922-.572c-.538.864-1.241 1.706-2.066 2.51-1.441 1.407-3.253 2.695-5.157 3.821-2.858 1.687-5.922 3.01-8.264 3.903a60.674 60.674 0 01-3.661 1.272c-.092.03-.163.049-.211.065-.025.008-.04.011-.052.016h-.013v.005l.303 1.043.54-.943-4.148-2.381-.222-.027h-.01c-.13-.016-1.355-.165-3.056-.461-1.701-.297-3.878-.751-5.893-1.364-2.03-.618-3.542-1.452-4.54-2.122-.5-.335-.868-.629-1.109-.834a7.91 7.91 0 01-.26-.235c-.026-.027-.045-.043-.056-.054l-.01-.011-.482.465.484-.465h-.003l-.481.465.484-.465-.785.751.966-.497c-.303-.583-.549-1.385-.72-2.292-.259-1.364-.364-2.967-.405-4.484-.022-.759-.027-1.499-.032-2.182a89.824 89.824 0 00-.028-1.86l-.002-.186c0-.551.08-1.015.2-1.404a3.937 3.937 0 01.654-1.274 2.673 2.673 0 01.32-.346l.008-.005-.357-.438.346.446.01-.008-.356-.438.346.446-.668-.856.595.91 3.15-2.049.092-.446c.168-.818.549-1.5 1.057-2.095a6.995 6.995 0 011.307-1.16 10.3 10.3 0 011.998-1.07 9.884 9.884 0 01.844-.297c.019-.005.032-.01.04-.01h.008l-.178-.665.176.664-.179-.664.176.664.606-.159.167-.602c.122-.443.3-.829.522-1.177.387-.608.909-1.102 1.501-1.501.887-.6 1.923-.975 2.729-1.183a10.232 10.232 0 011.325-.256h.013l-.056-.597.053.597-.056-.597.054.597.776-.07.181-.756a1.18 1.18 0 01.2-.408c.2-.289.568-.637 1.041-.961.712-.491 1.65-.934 2.548-1.24.449-.153.89-.272 1.281-.35.393-.081.739-.116.985-.116a1.4 1.4 0 01.295.024c.41.097.911.257 1.414.443.754.278 1.525.615 2.098.88.287.132.528.248.693.33.084.04.148.072.192.094l.048.024.011.005h.003l.492-.966-.008-.008z" fill="#000"/><path d="M51.153 115.909s11.674-4.101 24.281-13.893c0 0 1.774-1.398 3.456-.092 2.537 1.971 3.175 2.052 1.028 3.823s-12.14 8.672-24.75 12.867c0 0-5.291.683-4.015-2.705z" fill="#9C1F21"/><path d="M51.153 115.909l.222.629c.043-.016 11.774-4.139 24.47-13.995h.003l-.225-.287.222.287-.224-.287.222.287.008-.006c.037-.027.227-.162.495-.281.27-.121.613-.224.968-.221a1.825 1.825 0 011.162.416c.379.294.712.545.998.761.427.324.744.578.914.756a.907.907 0 01.149.186l.01.022.05-.014h-.05v.014l.05-.014h-.05.052l-.051-.005v.005h.051l-.051-.005.013.003h-.013s-.006.021-.035.073a2.108 2.108 0 01-.322.38c-.17.17-.403.376-.698.616-.251.208-.635.505-1.13.864-1.736 1.263-4.854 3.326-8.903 5.526-4.048 2.2-9.032 4.536-14.5 6.355l.211.635-.086-.662s-.411.052-.947.052c-.289 0-.616-.014-.935-.057a4.178 4.178 0 01-.679-.143c-.311-.097-.552-.232-.69-.375a.696.696 0 01-.154-.23.846.846 0 01-.056-.329c0-.176.04-.416.156-.724l-.627-.235-.627-.235a3.38 3.38 0 00-.241 1.194c0 .262.04.515.124.748.144.407.411.731.717.966.23.176.481.305.738.405.387.151.79.235 1.18.286.389.052.765.068 1.094.068.636 0 1.098-.06 1.117-.062l.065-.008.062-.022c6.358-2.117 12.045-4.908 16.418-7.395a89.796 89.796 0 005.492-3.382 57.725 57.725 0 001.858-1.294c.51-.372.911-.68 1.195-.915.454-.375.8-.686 1.065-.996.133-.157.244-.316.33-.497a1.4 1.4 0 00.144-.602c0-.154-.03-.305-.079-.44a1.853 1.853 0 00-.381-.605c-.235-.259-.525-.494-.874-.769-.351-.273-.765-.581-1.249-.953a3.29 3.29 0 00-1.003-.54 3.143 3.143 0 00-.982-.157c-.668 0-1.227.2-1.628.392-.4.191-.64.38-.67.402h.002a102.458 102.458 0 01-16.758 10.545 83.785 83.785 0 01-5.349 2.462c-.638.265-1.138.462-1.476.592-.168.065-.298.113-.384.143l-.097.035-.025.008h-.005l-.295.105-.11.292.627.235.005-.003z" fill="#000"/><path d="M55.728 118.428s11.207-3.45 24.187-12.773c0 0 1.4-.839 2.802.281 2.51 2.003 1.774 1.957-.374 3.728-2.147 1.772-9.462 6.931-22.071 11.126 0 0-6.35 1.555-4.546-2.362" fill="#9C1F21"/><path d="M55.728 118.428l.198.64c.046-.014 11.314-3.486 24.381-12.87l-.392-.543.343.573-.17-.284.165.286h.005l-.17-.286.165.286.068-.035c.132-.062.443-.178.803-.175.173 0 .357.024.552.089.194.065.402.17.621.345.544.435.923.764 1.13.997.106.116.166.202.19.248a.112.112 0 01.016.038l.079-.016h-.081v.016l.08-.016h-.08.092l-.09-.033-.005.033h.092l-.09-.033v.006a.93.93 0 01-.132.159c-.122.124-.33.297-.603.51-.273.213-.606.47-.984.783-.517.427-1.363 1.069-2.531 1.858-3.508 2.362-9.933 6.025-19.327 9.149l.21.634-.159-.647s-.306.072-.746.145c-.438.07-1.017.141-1.569.141-.273 0-.54-.017-.776-.054a2.641 2.641 0 01-.462-.116 1.218 1.218 0 01-.238-.119.527.527 0 01-.184-.189.596.596 0 01-.065-.297c0-.197.062-.513.262-.942l-.608-.281-.609-.278c-.251.545-.384 1.036-.384 1.501 0 .202.027.397.081.583.095.324.279.605.509.815.17.16.362.278.562.373.3.14.617.221.939.273.321.051.651.07.973.07.67 0 1.317-.081 1.807-.162.486-.081.814-.16.827-.162l.027-.008.024-.008c6.345-2.112 11.364-4.469 15.071-6.523a61.025 61.025 0 004.581-2.789c1.2-.81 2.077-1.474 2.634-1.936.292-.24.557-.448.798-.634.36-.284.662-.513.914-.772.124-.13.24-.27.335-.446.092-.17.157-.383.157-.604 0-.233-.068-.454-.168-.643-.151-.283-.36-.521-.633-.783a14.852 14.852 0 00-1.035-.885 3.313 3.313 0 00-1.036-.57 3.122 3.122 0 00-.974-.157c-.448 0-.824.095-1.092.189-.268.095-.433.192-.462.208l-.025.014-.022.016c-6.449 4.63-12.458 7.805-16.85 9.819a80.333 80.333 0 01-5.227 2.187 50.43 50.43 0 01-1.795.632l-.092.029-.022.008h-.005l-.287.089-.124.27.608.278.005.006z" fill="#000"/><path d="M61.894 120.356s8.343-2.363 21.417-11.126c0 0 1.62-.683 2.926.124 2.456 1.517 2.256 1.965.298 3.523-1.958 1.558-8.507 6.156-19.995 9.849 0 0-5.584.502-4.646-2.37z" fill="#9C1F21"/><path d="M61.894 120.355l.181.643c.06-.016 8.47-2.408 21.607-11.215l-.373-.553.26.615h.005c.027-.013.173-.07.386-.121.214-.051.495-.097.79-.097.192 0 .39.019.582.064.192.046.376.119.554.23.606.372 1.028.675 1.257.896.117.111.182.197.209.246.013.024.019.04.021.046V111.13a.486.486 0 01-.07.133 2.76 2.76 0 01-.408.442c-.2.184-.463.4-.774.651-.946.753-3.045 2.273-6.328 4.061-3.283 1.787-7.755 3.841-13.456 5.674l.206.638-.06-.667s-.36.032-.854.029c-.328 0-.717-.013-1.112-.054a6.622 6.622 0 01-.862-.145 3.636 3.636 0 01-.55-.181c-.24-.106-.413-.23-.508-.346a.557.557 0 01-.102-.175.73.73 0 01-.038-.224c0-.103.018-.235.073-.4l-.636-.208-.635-.208c-.09.278-.138.551-.138.816 0 .283.056.558.165.801.094.214.227.4.378.559.268.278.587.47.922.616.506.216 1.052.332 1.582.402.53.068 1.041.087 1.458.087.568 0 .96-.036.974-.038l.073-.006.07-.021c5.784-1.86 10.333-3.95 13.686-5.775 3.353-1.825 5.511-3.383 6.52-4.187.492-.392.887-.721 1.195-1.059.154-.17.287-.345.39-.545.102-.2.172-.432.172-.678a1.45 1.45 0 00-.192-.704c-.178-.314-.43-.559-.746-.816a11.982 11.982 0 00-1.184-.81 3.23 3.23 0 00-.944-.391 3.8 3.8 0 00-.898-.103 4.731 4.731 0 00-1.698.324l-.06.025-.054.035c-6.506 4.36-11.828 7.124-15.514 8.796a60.844 60.844 0 01-4.25 1.752c-.485.175-.855.299-1.101.378-.122.04-.214.067-.276.086-.03.008-.052.016-.068.019l-.016.005h-.003l-.343.098-.111.34.635.208.011-.009z" fill="#000"/><path d="M68.617 122.218s8.98-3.126 18.864-9.883c0 0 1.423-.783 2.553-.063 2.242 1.429.871 1.804-1.184 3.232-1.707 1.188-6.855 4.142-16.56 8.267 0 0-4.457.812-3.673-1.555" fill="#9C1F21"/><path d="M68.617 122.218l.219.632c.035-.013 9.062-3.153 19.021-9.962l-.378-.551.324.586-.19-.345.188.345h.002l-.19-.345.188.345h.005c.03-.019.178-.092.387-.159.208-.068.478-.127.738-.127.132 0 .262.013.387.046.124.032.24.081.357.154.38.24.63.443.749.577.062.065.089.111.094.127v.008l.022-.005-.019.005.11-.029h-.113v.029l.114-.029h-.114.14l-.134-.03v.03h.135l-.135-.03.067.014-.065-.027v.01l.065.014-.065-.027-.005.011a.848.848 0 01-.181.191 6.95 6.95 0 01-.747.532c-.324.214-.708.456-1.124.748-.406.281-1.033.683-1.899 1.183-2.59 1.506-7.285 3.93-14.543 7.016l.262.616-.119-.656a9.202 9.202 0 01-1.439.124c-.235 0-.473-.014-.69-.043a2.397 2.397 0 01-.432-.095c-.186-.059-.303-.135-.349-.186a.242.242 0 01-.046-.07c-.008-.025-.019-.057-.019-.116 0-.065.014-.168.06-.303l-.635-.21-.636-.211a2.385 2.385 0 00-.127.721 1.594 1.594 0 00.617 1.274c.167.133.351.23.538.303.28.11.57.175.86.213.289.038.581.054.857.054.892 0 1.657-.143 1.68-.146l.072-.013.07-.03c4.868-2.068 8.594-3.845 11.326-5.257a75.369 75.369 0 003.367-1.835 30.042 30.042 0 001.99-1.242c.316-.219.616-.416.898-.6.421-.275.792-.513 1.103-.785a2.27 2.27 0 00.416-.47c.06-.094.111-.197.146-.313.038-.116.06-.24.06-.37 0-.197-.052-.389-.133-.556a2.166 2.166 0 00-.519-.651 6.096 6.096 0 00-.811-.599 2.51 2.51 0 00-.744-.321 2.843 2.843 0 00-.72-.09c-.497 0-.924.114-1.238.222-.313.108-.51.216-.535.229l-.027.017-.027.018c-4.903 3.354-9.59 5.808-13.045 7.422a79.815 79.815 0 01-4.135 1.798c-.492.197-.879.343-1.139.44-.13.049-.23.084-.294.108-.033.011-.057.022-.073.027l-.02.006h-.005l-.31.11-.103.313.635.211.003.005zM67.062 89.524s-2.49 7.584 1.43 14.42c0 0-1.744-11.81 1.371-16.223l-2.801 1.803zM60.245 94.51s-1.688 7.8 2.925 14.193c0 0-2.963-11.565-.327-16.276l-2.599 2.084zM54.625 98.898s-1.755 7.165 2.799 12.986c0 0-2.861-10.575-.184-14.92l-2.615 1.934z" fill="#000"/><path d="M72.914 85.329s-2.71-3.17-.56-5.875 4.389-2.516 4.389-2.516l5.836 7.505-3.034 2.565s-1.496-3.078-6.631-1.68z" fill="#9C1F21"/><path d="M72.914 85.329l.635-.543-.378.322.378-.32c-.032-.04-.343-.426-.635-.987a5.304 5.304 0 01-.387-.948 3.738 3.738 0 01-.165-1.066c0-.3.043-.6.144-.9.1-.299.256-.601.505-.915.863-1.082 1.701-1.62 2.36-1.9.658-.28 1.145-.303 1.28-.303h.035l.02-.367-.03.367h.01l.02-.367-.03.367.067-.831-.66.513 5.346 6.874-2.423 2.046.541.637.752-.364c-.038-.076-.349-.694-1.12-1.31a5.168 5.168 0 00-1.514-.834 6.682 6.682 0 00-2.255-.367c-.798 0-1.698.119-2.712.394l.219.805.219.807c.89-.243 1.641-.335 2.271-.335.695 0 1.247.11 1.693.27a3.43 3.43 0 011.358.864 2.695 2.695 0 01.332.432l.008.013.106-.054-.108.054.105-.054-.108.054.522-.261-.525.253v.008l.525-.261-.525.253.47.97 4.47-3.778-6.554-8.428-.368-.03c-.022 0-.076-.005-.162-.005-.314 0-1.03.051-1.937.437-.906.383-1.99 1.107-3.015 2.4-.362.456-.619.94-.781 1.426a4.47 4.47 0 00-.227 1.428c0 .58.105 1.123.254 1.606.224.73.551 1.331.825 1.763.273.432.492.689.51.713l.344.402.511-.14-.219-.807.003-.003z" fill="#000"/><path d="M50.36 114.492l-4.81 3.496s1.725 1.444 2.242 1.444c.14 0 3.082-2.052 3.082-2.052l-.513-2.891v.003z" fill="#A67D52"/><path d="M50.36 114.492l-.245-.338-5.241 3.812.41.343s.442.37.95.74c.254.186.527.372.784.521.13.073.252.138.373.189.063.024.125.046.19.065a.865.865 0 00.216.029c.065 0 .095-.01.122-.016.046-.013.07-.024.094-.035.044-.022.081-.04.128-.067.167-.098.427-.265.735-.47.92-.613 2.242-1.534 2.245-1.536l.219-.154-.677-3.812-.54.394.246.337-.411.073.514 2.892.41-.073-.24-.343-.127.086c-.282.197-.99.686-1.639 1.126-.325.219-.636.427-.868.578a5.94 5.94 0 01-.281.173l-.065.037.024.054-.022-.054.025.054-.022-.054.106.243-.079-.253a.128.128 0 00-.027.01l.106.243-.079-.253.111.367v-.384c-.07 0-.092.011-.11.017l.11.367v-.384.106l.008-.106h-.008v.106l.008-.106a.666.666 0 01-.146-.054 4.188 4.188 0 01-.535-.313 14.773 14.773 0 01-.884-.645c-.125-.097-.23-.184-.303-.243-.038-.03-.065-.054-.087-.07l-.021-.019-.009-.005-.267.321.246.337 4.81-3.496-.245-.337h-.011zM79.317 97.802s7.25-.251 9.165-3.748l-1.028-3.542-8.137 7.29z" fill="#000"/><path d="M74.915 90.445l21.801-20.289s7.448-6.093 10.552-21.22c2.047-9.976 6.671-27.727 6.671-27.727s2.38-11.668 19.395-17.038l2.312 1.58-13.364 46.57s-2.523 8.205-8.313 14.172c-3.902 4.02-7.945 7.994-16.25 14.824C83.6 92.93 78.948 96.8 78.948 96.8h-3.57l-.465-6.35.003-.005z" fill="#754D24"/><path d="M74.915 90.445l.684.734L97.4 70.89l-.684-.734.636.775c.065-.054 1.998-1.65 4.313-5.162 2.315-3.512 5.006-8.942 6.585-16.633 1.017-4.96 2.682-11.887 4.094-17.565.706-2.84 1.347-5.367 1.812-7.187.232-.91.422-1.641.551-2.146.065-.251.117-.448.149-.58l.052-.2.005-.027.005-.027-.757-.154.757.156-.148-.03.148.033c.006-.027.603-2.816 3.227-6.223 1.311-1.706 3.128-3.569 5.646-5.335 2.515-1.763 5.73-3.428 9.841-4.727l-.303-.956-.568.83 1.714 1.168-13.164 45.875.966.275-.96-.294.092.027-.092-.03c-.009.027-.636 2.047-1.961 4.77-1.322 2.725-3.348 6.15-6.114 8.999-1.945 2.006-3.916 3.987-6.434 6.32-2.52 2.335-5.592 5.022-9.732 8.429C82.955 92.15 78.301 96.02 78.301 96.022l.643.77V95.79h-2.636l-.398-5.42-1 .072-1.001.073.533 7.279h4.865l.278-.233s.073-.059.227-.189c1.082-.896 6.185-5.13 18.54-15.291 4.165-3.426 7.269-6.14 9.822-8.504a162.316 162.316 0 006.512-6.396c3.004-3.097 5.124-6.725 6.509-9.584 1.384-2.86 2.031-4.954 2.042-4.99v-.01l13.567-47.273-3.313-2.262-.465.145c-4.346 1.372-7.783 3.154-10.487 5.065-4.056 2.867-6.452 6.018-7.832 8.461-1.379 2.446-1.741 4.188-1.757 4.266l.984.2-.971-.252s-1.157 4.444-2.571 10.135c-1.415 5.691-3.083 12.627-4.114 17.643-1.525 7.435-4.11 12.616-6.292 15.934-1.093 1.658-2.085 2.849-2.8 3.62-.356.387-.643.665-.835.846l-.216.197a.838.838 0 01-.052.043l-.01.008.216.26-.214-.262.217.261-.214-.261-.024.021-22.178 20.64.036.478 1-.073.003.008z" fill="#000"/><path d="M76.364 96.117s24.885-20.664 30.163-25.742c5.184-4.99 10.587-9.668 13.513-19.676 2.691-10.645 13.291-46.533 13.291-46.533l2.313 1.58-11.842 44.583s-2.261 7.095-6.258 12.68c-3.269 4.569-6.652 7.555-11.955 12.215C92.327 86.878 79.72 96.738 79.72 96.738l-3.358-.618.002-.003z" fill="#877357"/><path d="M76.364 96.117l.428.513s6.222-5.167 13.104-10.97c3.443-2.901 7.05-5.96 10.128-8.614a430.07 430.07 0 004.134-3.607 103.268 103.268 0 002.832-2.584c2.582-2.486 5.259-4.927 7.666-8.026 2.41-3.1 4.538-6.86 6.025-11.941v-.01l.005-.012c.668-2.648 1.837-6.887 3.208-11.744 2.058-7.29 4.578-15.98 6.582-22.848 1.003-3.434 1.876-6.412 2.498-8.534.311-1.06.56-1.906.733-2.486l.265-.897-.641-.189-.378.551 1.923 1.312-11.721 44.128.647.173-.638-.203c-.03.097-.603 1.874-1.655 4.301s-2.583 5.505-4.508 8.194c-1.612 2.251-3.245 4.106-5.141 5.988-1.896 1.879-4.059 3.785-6.709 6.115-6.623 5.82-13.083 11.193-17.889 15.11a699.576 699.576 0 01-5.778 4.66c-.695.554-1.24.983-1.607 1.275l-.422.332-.143.113.414.526.121-.656-3.358-.618-.122.656-.122.656 3.656.675.239-.186s12.62-9.868 25.898-21.539c2.65-2.33 4.829-4.25 6.768-6.169 1.937-1.92 3.629-3.842 5.287-6.158 2.039-2.854 3.618-6.058 4.697-8.558 1.077-2.5 1.65-4.293 1.653-4.306l.005-.017 11.966-45.056-3.461-2.362-.26.88s-2.65 8.974-5.638 19.276a2255.433 2255.433 0 00-4.443 15.502c-1.374 4.865-2.542 9.104-3.218 11.78l.649.161-.644-.186c-1.441 4.924-3.475 8.507-5.798 11.498-2.32 2.989-4.937 5.38-7.539 7.884a97.062 97.062 0 01-2.791 2.545c-4.137 3.67-10.976 9.463-16.774 14.336a2631.428 2631.428 0 01-7.456 6.242c-.957.8-1.733 1.445-2.271 1.893-.268.224-.479.397-.62.513-.14.118-.216.178-.216.178l-1.097.912 1.406.26.121-.656v-.006z" fill="#000"/><path d="M125.165 44.022l-2.277-1.582-15.239 4.82 5.241-22.79 16.893-6.746 2.553 1.447-7.171 24.851z" fill="#000"/><path d="M23.078 89.009l1.187-.843 9.908 1.677-.449 2.648-4.448-.753-.34 2.011 4.448.75-.282 1.653-1.184.826-9.908-1.676.451-2.649 4.446.753.565-3.334-.833 1.22-3.837-.647.276-1.636zM21.92 99.662l.952-1.096 9-.637 1.098.95.381 5.359-.954 1.08-3.473.248-.189-2.681 2.46-.172-.24-3.375-.519 1.385-6.36.451.143 2.033 2.463-.176.19 2.678-3.472.249-1.098-.937-.382-5.36zM31.723 123.568l5.839-3.847-1.866-2.821.224 1.46-5.322 3.507 1.125 1.701zm8.167-2.16l-7.529 4.96-1.417-.278-3.529-5.34 9.246-6.091 3.53 5.34-.301 1.409zM34.42 130.177l-.058-1.449 6.82-7.368 1.977 1.822-5.716 6.172-1.407-.459 2.488 2.295 6.133-6.623 1.977 1.823-7.52 8.12-4.695-4.333zM44.244 137.812l-2.353-1.301 5.363-9.679 2.355 1.302-2.185 3.941 1.787.986 2.183-3.939 1.468.81.387 1.387-1.685 3.043-1.385.408.39 1.387-2.185 3.942-2.353-1.301 2.183-3.939-2.964-1.639.879 1.191-1.885 3.401zM58.197 138.528l1.599.445-.939 3.348-1.252.715-6.173-1.725 2.988-10.65 2.59.726-2.268 8.094-1.463.229 3.26.913.393-1.399 1.265-.696zM63.116 134.77l1.32.669-.073 1.847 2.039.081.097-2.462-3.383-.135zm-1.7 8.96l.397-10.024 1.068-.986 6.388.252-.439 11.05-2.688-.106.179-4.5-2.04-.081-.178 4.498-2.687-.106v.003zM82.955 136.133l-1.38-.456-2.03-4.023.457-1.377 5.71-2.872 1.296 2.567-.449 1.358-1.498.753-.833-1.649-3.026 1.52 1.48-.054.832 1.652 3.321-1.671 1.369.464 2.028 4.02-.441 1.372-4.808 2.416-1.38-.454-1.29-2.554 1.499-.753 1.36.448.379.748 1.822-.918-1.111-2.2-3.307 1.663zM93.42 135.412l-7.234-8.377 4.857-4.177 1.438.116 2.272 2.635-2.036 1.752-1.612-1.868-2.566 2.209 1.328-.519 1.303 1.509 1.163-1.001 1.341 1.558-1.163.999 1.612 1.868 1.547-1.331-1.612-1.868 2.039-1.753 2.272 2.633-.095 1.439-4.854 4.176zM101.268 128.125l-9.03-6.409 3.716-5.216 1.425-.227 8.188 5.813-1.557 2.19-7.364-5.23-1.963 2.757 1.282-.737 6.86 4.87-1.557 2.189zM105.935 119.022l-9.094-4.274 1.146-2.43 1.847.87-.573 1.215 1.133-.953 7.618 3.579-.709 1.502-1.368.491zM109.478 113.385l-1.263.721-8.705-2.355-.725-1.26 1.409-5.187 1.257-.707 3.362.91-.706 2.594-2.382-.645-.887 3.261.949-1.133 6.155 1.665.535-1.968-2.382-.642.703-2.595 3.358.91.73 1.245-1.408 5.186zM102.63 102.405l.652-1.326 1.85.049.054-2.038-2.469-.065-.089 3.38h.002zm8.997 1.582l-10.046-.267-1-1.053.17-6.383 11.074.295-.073 2.686-4.508-.121-.054 2.038 4.508.119-.073 2.683.002.003z" fill="#241F21"/><path d="M74.066 134.052l1.655 2.203 2.615-.87-1.588 2.252 1.64 2.216-2.638-.812-1.606 2.24-.04-2.753-2.629-.832 2.61-.891-.02-2.753zM32.37 110.62l-2.21 1.647.866 2.616-2.253-1.587-2.223 1.628.817-2.63-2.24-1.606 2.759-.038.838-2.622.887 2.606 2.759-.014z" fill="#EB2126"/></g><defs><clipPath id="clip0_3_645"><path fill="#fff" d="M0 0h140v154H0z"/></clipPath></defs></svg>