<svg width="24" height="24" viewBox="0 0 24 24" fill="none" xmlns="http://www.w3.org/2000/svg"><path d="M19.7 9.35a.5.5 0 00-1 0h1zM3.404 16.255a.5.5 0 10-.808.59l.808-.59zm-.489-.198a.5.5 0 00.17.986l-.17-.986zM5.7 15.65l.159.474a.5.5 0 00.196-.826l-.355.352zm-.9-10.8l.44-.237a.5.5 0 00-.847-.054l.407.291zm5.4 4.5l-.118.486a.5.5 0 00.618-.47l-.5-.016zm8.1-2.7l-.418.275a.5.5 0 00.418.225v-.5zm2.7 0l.416.277A.5.5 0 0021 6.15v.5zm-2.216 2.423a.5.5 0 10.832.554l-.832-.554zm-.084.277c0 3.058-.873 5.63-2.462 7.432-1.583 1.793-3.915 2.868-6.938 2.868v1c3.277 0 5.895-1.175 7.687-3.207C18.773 15.42 19.7 12.592 19.7 9.35h-1zm-9.4 10.3c-1.704 0-2.862-.442-3.74-1.063-.893-.632-1.525-1.468-2.156-2.332l-.808.59c.626.857 1.344 1.82 2.387 2.559 1.057.748 2.42 1.246 4.317 1.246v-1zm-6.215-2.607l.046-.01a.662.662 0 00.013-.004l.015-.005.03-.01c.022-.006.054-.017.092-.03l.31-.102a647.822 647.822 0 001.85-.618l.303-.101.085-.029.022-.007.006-.002h.001L5.7 15.65l-.159-.474h-.002l-.006.002-.022.008a32.703 32.703 0 01-.388.13l-.92.308a657.57 657.57 0 01-1.322.44l-.02.006h.001l.01-.003.011-.003a.434.434 0 01.032-.007l.17.986zm2.97-1.745c-2.83-2.862-3.044-7.091-.848-10.157l-.814-.582c-2.472 3.454-2.23 8.227.952 11.443l.71-.704zM4.36 5.087c1.155 2.15 3.324 4.166 5.722 4.749l.236-.972c-2.054-.5-4.02-2.282-5.078-4.25l-.88.473zm6.34 4.28c.04-1.191.46-2.192 1.146-2.892.682-.698 1.654-1.125 2.854-1.125v-1c-1.45 0-2.686.523-3.57 1.425-.88.9-1.383 2.15-1.43 3.558l1 .034zm4-4.017c.838 0 1.47.16 1.967.424.495.264.885.65 1.215 1.151l.835-.55c-.402-.611-.91-1.125-1.58-1.483-.669-.357-1.47-.542-2.437-.542v1zm3.6 1.8H21v-1h-2.7v1zm2.284-.777l-1.8 2.7.832.554 1.8-2.7-.832-.554z" fill="#fff"/></svg>